<svg version="1.1" xmlns="http://www.w3.org/2000/svg" viewBox="0 0 258.27078737769557 90.51543610754047" width="258.27078737769557" height="90.51543610754047" class="excalidraw-svg"><!-- svg-source:excalidraw --><metadata></metadata><defs><style class="style-fonts">
      </style></defs><g stroke-linecap="round" transform="translate(110.59070807870538 10) rotate(0 18.544685469776027 18.544685469776027)"><path d="M37.09 18.54 C37.09 19.62, 36.99 20.71, 36.81 21.76 C36.62 22.82, 36.34 23.88, 35.97 24.89 C35.6 25.9, 35.14 26.89, 34.6 27.82 C34.07 28.75, 33.44 29.64, 32.75 30.46 C32.06 31.29, 31.29 32.06, 30.46 32.75 C29.64 33.44, 28.75 34.07, 27.82 34.6 C26.89 35.14, 25.9 35.6, 24.89 35.97 C23.88 36.34, 22.82 36.62, 21.76 36.81 C20.71 36.99, 19.62 37.09, 18.54 37.09 C17.47 37.09, 16.38 36.99, 15.32 36.81 C14.27 36.62, 13.21 36.34, 12.2 35.97 C11.19 35.6, 10.2 35.14, 9.27 34.6 C8.34 34.07, 7.45 33.44, 6.62 32.75 C5.8 32.06, 5.03 31.29, 4.34 30.46 C3.65 29.64, 3.02 28.75, 2.48 27.82 C1.95 26.89, 1.49 25.9, 1.12 24.89 C0.75 23.88, 0.47 22.82, 0.28 21.76 C0.1 20.71, 0 19.62, 0 18.54 C0 17.47, 0.1 16.38, 0.28 15.32 C0.47 14.27, 0.75 13.21, 1.12 12.2 C1.49 11.19, 1.95 10.2, 2.48 9.27 C3.02 8.34, 3.65 7.45, 4.34 6.62 C5.03 5.8, 5.8 5.03, 6.62 4.34 C7.45 3.65, 8.34 3.02, 9.27 2.48 C10.2 1.95, 11.19 1.49, 12.2 1.12 C13.21 0.75, 14.27 0.47, 15.32 0.28 C16.38 0.1, 17.47 0, 18.54 0 C19.62 0, 20.71 0.1, 21.76 0.28 C22.82 0.47, 23.88 0.75, 24.89 1.12 C25.9 1.49, 26.89 1.95, 27.82 2.48 C28.75 3.02, 29.64 3.65, 30.46 4.34 C31.29 5.03, 32.06 5.8, 32.75 6.62 C33.44 7.45, 34.07 8.34, 34.6 9.27 C35.14 10.2, 35.6 11.19, 35.97 12.2 C36.34 13.21, 36.62 14.27, 36.81 15.32 C36.99 16.38, 37.04 18.01, 37.09 18.54 C37.14 19.08, 37.14 18.01, 37.09 18.54" stroke="none" stroke-width="0" fill="#121212"></path><path d="M37.09 18.54 C37.09 19.62, 36.99 20.71, 36.81 21.76 C36.62 22.82, 36.34 23.88, 35.97 24.89 C35.6 25.9, 35.14 26.89, 34.6 27.82 C34.07 28.75, 33.44 29.64, 32.75 30.46 C32.06 31.29, 31.29 32.06, 30.46 32.75 C29.64 33.44, 28.75 34.07, 27.82 34.6 C26.89 35.14, 25.9 35.6, 24.89 35.97 C23.88 36.34, 22.82 36.62, 21.76 36.81 C20.71 36.99, 19.62 37.09, 18.54 37.09 C17.47 37.09, 16.38 36.99, 15.32 36.81 C14.27 36.62, 13.21 36.34, 12.2 35.97 C11.19 35.6, 10.2 35.14, 9.27 34.6 C8.34 34.07, 7.45 33.44, 6.62 32.75 C5.8 32.06, 5.03 31.29, 4.34 30.46 C3.65 29.64, 3.02 28.75, 2.48 27.82 C1.95 26.89, 1.49 25.9, 1.12 24.89 C0.75 23.88, 0.47 22.82, 0.28 21.76 C0.1 20.71, 0 19.62, 0 18.54 C0 17.47, 0.1 16.38, 0.28 15.32 C0.47 14.27, 0.75 13.21, 1.12 12.2 C1.49 11.19, 1.95 10.2, 2.48 9.27 C3.02 8.34, 3.65 7.45, 4.34 6.62 C5.03 5.8, 5.8 5.03, 6.62 4.34 C7.45 3.65, 8.34 3.02, 9.27 2.48 C10.2 1.95, 11.19 1.49, 12.2 1.12 C13.21 0.75, 14.27 0.47, 15.32 0.28 C16.38 0.1, 17.47 0, 18.54 0 C19.62 0, 20.71 0.1, 21.76 0.28 C22.82 0.47, 23.88 0.75, 24.89 1.12 C25.9 1.49, 26.89 1.95, 27.82 2.48 C28.75 3.02, 29.64 3.65, 30.46 4.34 C31.29 5.03, 32.06 5.8, 32.75 6.62 C33.44 7.45, 34.07 8.34, 34.6 9.27 C35.14 10.2, 35.6 11.19, 35.97 12.2 C36.34 13.21, 36.62 14.27, 36.81 15.32 C36.99 16.38, 37.04 18.01, 37.09 18.54 C37.14 19.08, 37.14 18.01, 37.09 18.54" stroke="#d3d3d3" stroke-width="2" fill="none"></path></g><g stroke-linecap="round"><g transform="translate(112.42236070090581 182.93779680844625) rotate(270 16.713032987941972 -119.13539368884778)"><path d="M0 0 C0 0, 0 0, 0 0 M0 0 C0 0, 0 0, 0 0 M0 0 C2.94 -5.58, 5.87 -11.16, 7.83 -14.89 M0 0 C2.94 -5.59, 5.88 -11.18, 7.83 -14.89 M7.83 -14.89 C9.25 -17.99, 10.66 -21.08, 14.62 -29.78 M7.83 -14.89 C9.8 -19.2, 11.76 -23.51, 14.62 -29.78 M14.62 -29.78 C16.09 -33.57, 17.55 -37.36, 20.37 -44.68 M14.62 -29.78 C16.7 -35.17, 18.78 -40.55, 20.37 -44.68 M20.37 -44.68 C22.09 -50.12, 23.81 -55.57, 25.07 -59.57 M20.37 -44.68 C22.15 -50.33, 23.94 -55.99, 25.07 -59.57 M25.07 -59.57 C26.07 -63.65, 27.07 -67.73, 28.73 -74.46 M25.07 -59.57 C26.52 -65.49, 27.98 -71.41, 28.73 -74.46 M28.73 -74.46 C29.7 -80.04, 30.68 -85.61, 31.34 -89.35 M28.73 -74.46 C29.77 -80.4, 30.81 -86.34, 31.34 -89.35 M31.34 -89.35 C31.67 -92.51, 32 -95.66, 32.9 -104.24 M31.34 -89.35 C31.75 -93.28, 32.16 -97.22, 32.9 -104.24 M32.9 -104.24 C33.04 -108.17, 33.18 -112.1, 33.43 -119.14 M32.9 -104.24 C33.03 -107.76, 33.15 -111.28, 33.43 -119.14 M33.43 -119.14 C33.31 -122.5, 33.19 -125.86, 32.9 -134.03 M33.43 -119.14 C33.28 -123.4, 33.13 -127.66, 32.9 -134.03 M32.9 -134.03 C32.29 -139.9, 31.67 -145.77, 31.34 -148.92 M32.9 -134.03 C32.31 -139.66, 31.72 -145.29, 31.34 -148.92 M31.34 -148.92 C30.42 -154.17, 29.49 -159.43, 28.73 -163.81 M31.34 -148.92 C30.72 -152.42, 30.11 -155.92, 28.73 -163.81 M28.73 -163.81 C27.43 -169.1, 26.13 -174.39, 25.07 -178.7 M28.73 -163.81 C27.97 -166.87, 27.22 -169.93, 25.07 -178.7 M25.07 -178.7 C24.08 -181.83, 23.09 -184.96, 20.37 -193.6 M25.07 -178.7 C24 -182.08, 22.94 -185.46, 20.37 -193.6 M20.37 -193.6 C18.84 -197.56, 17.31 -201.52, 14.62 -208.49 M20.37 -193.6 C18.68 -197.97, 16.99 -202.35, 14.62 -208.49 M14.62 -208.49 C12.62 -212.88, 10.62 -217.27, 7.83 -223.38 M14.62 -208.49 C13.11 -211.8, 11.6 -215.12, 7.83 -223.38 M7.83 -223.38 C5.67 -227.49, 3.51 -231.6, 0 -238.27 M7.83 -223.38 C5.36 -228.09, 2.88 -232.79, 0 -238.27" stroke="#d3d3d3" stroke-width="2" fill="none"></path></g></g><mask></mask></svg>