<svg version="1.1" xmlns="http://www.w3.org/2000/svg" viewBox="0 0 258.27078737769557 59.193070135328696" width="258.27078737769557" height="59.193070135328696" class="excalidraw-svg"><!-- svg-source:excalidraw --><metadata></metadata><defs><style class="style-fonts">
      </style></defs><g stroke-linecap="round" transform="translate(110.59070872379144 10) rotate(0 18.544685469776027 18.544685469776027)"><path d="M37.09 18.54 C37.09 19.62, 36.99 20.71, 36.81 21.76 C36.62 22.82, 36.34 23.88, 35.97 24.89 C35.6 25.9, 35.14 26.89, 34.6 27.82 C34.07 28.75, 33.44 29.64, 32.75 30.46 C32.06 31.29, 31.29 32.06, 30.46 32.75 C29.64 33.44, 28.75 34.07, 27.82 34.6 C26.89 35.14, 25.9 35.6, 24.89 35.97 C23.88 36.34, 22.82 36.62, 21.76 36.81 C20.71 36.99, 19.62 37.09, 18.54 37.09 C17.47 37.09, 16.38 36.99, 15.32 36.81 C14.27 36.62, 13.21 36.34, 12.2 35.97 C11.19 35.6, 10.2 35.14, 9.27 34.6 C8.34 34.07, 7.45 33.44, 6.62 32.75 C5.8 32.06, 5.03 31.29, 4.34 30.46 C3.65 29.64, 3.02 28.75, 2.48 27.82 C1.95 26.89, 1.49 25.9, 1.12 24.89 C0.75 23.88, 0.47 22.82, 0.28 21.76 C0.1 20.71, 0 19.62, 0 18.54 C0 17.47, 0.1 16.38, 0.28 15.32 C0.47 14.27, 0.75 13.21, 1.12 12.2 C1.49 11.19, 1.95 10.2, 2.48 9.27 C3.02 8.34, 3.65 7.45, 4.34 6.62 C5.03 5.8, 5.8 5.03, 6.62 4.34 C7.45 3.65, 8.34 3.02, 9.27 2.48 C10.2 1.95, 11.19 1.49, 12.2 1.12 C13.21 0.75, 14.27 0.47, 15.32 0.28 C16.38 0.1, 17.47 0, 18.54 0 C19.62 0, 20.71 0.1, 21.76 0.28 C22.82 0.47, 23.88 0.75, 24.89 1.12 C25.9 1.49, 26.89 1.95, 27.82 2.48 C28.75 3.02, 29.64 3.65, 30.46 4.34 C31.29 5.03, 32.06 5.8, 32.75 6.62 C33.44 7.45, 34.07 8.34, 34.6 9.27 C35.14 10.2, 35.6 11.19, 35.97 12.2 C36.34 13.21, 36.62 14.27, 36.81 15.32 C36.99 16.38, 37.04 18.01, 37.09 18.54 C37.14 19.08, 37.14 18.01, 37.09 18.54" stroke="none" stroke-width="0" fill="#121212"></path><path d="M37.09 18.54 C37.09 19.62, 36.99 20.71, 36.81 21.76 C36.62 22.82, 36.34 23.88, 35.97 24.89 C35.6 25.9, 35.14 26.89, 34.6 27.82 C34.07 28.75, 33.44 29.64, 32.75 30.46 C32.06 31.29, 31.29 32.06, 30.46 32.75 C29.64 33.44, 28.75 34.07, 27.82 34.6 C26.89 35.14, 25.9 35.6, 24.89 35.97 C23.88 36.34, 22.82 36.62, 21.76 36.81 C20.71 36.99, 19.62 37.09, 18.54 37.09 C17.47 37.09, 16.38 36.99, 15.32 36.81 C14.27 36.62, 13.21 36.34, 12.2 35.97 C11.19 35.6, 10.2 35.14, 9.27 34.6 C8.34 34.07, 7.45 33.44, 6.62 32.75 C5.8 32.06, 5.03 31.29, 4.34 30.46 C3.65 29.64, 3.02 28.75, 2.48 27.82 C1.95 26.89, 1.49 25.9, 1.12 24.89 C0.75 23.88, 0.47 22.82, 0.28 21.76 C0.1 20.71, 0 19.62, 0 18.54 C0 17.47, 0.1 16.38, 0.28 15.32 C0.47 14.27, 0.75 13.21, 1.12 12.2 C1.49 11.19, 1.95 10.2, 2.48 9.27 C3.02 8.34, 3.65 7.45, 4.34 6.62 C5.03 5.8, 5.8 5.03, 6.62 4.34 C7.45 3.65, 8.34 3.02, 9.27 2.48 C10.2 1.95, 11.19 1.49, 12.2 1.12 C13.21 0.75, 14.27 0.47, 15.32 0.28 C16.38 0.1, 17.47 0, 18.54 0 C19.62 0, 20.71 0.1, 21.76 0.28 C22.82 0.47, 23.88 0.75, 24.89 1.12 C25.9 1.49, 26.89 1.95, 27.82 2.48 C28.75 3.02, 29.64 3.65, 30.46 4.34 C31.29 5.03, 32.06 5.8, 32.75 6.62 C33.44 7.45, 34.07 8.34, 34.6 9.27 C35.14 10.2, 35.6 11.19, 35.97 12.2 C36.34 13.21, 36.62 14.27, 36.81 15.32 C36.99 16.38, 37.04 18.01, 37.09 18.54 C37.14 19.08, 37.14 18.01, 37.09 18.54" stroke="#d3d3d3" stroke-width="2" fill="none"></path></g><g stroke-linecap="round"><g transform="translate(112.42236070090581 151.6154308362345) rotate(89.99999999999994 16.713032987941972 -119.13539368884777)"><path d="M0 0 C0 0, 0 0, 0 0 M0 0 C0 0, 0 0, 0 0 M0 0 C2.27 -4.32, 4.54 -8.63, 7.83 -14.89 M0 0 C1.97 -3.74, 3.93 -7.48, 7.83 -14.89 M7.83 -14.89 C10.45 -20.64, 13.07 -26.38, 14.62 -29.78 M7.83 -14.89 C9.49 -18.51, 11.14 -22.14, 14.62 -29.78 M14.62 -29.78 C16.39 -34.37, 18.16 -38.95, 20.37 -44.68 M14.62 -29.78 C16.2 -33.87, 17.77 -37.95, 20.37 -44.68 M20.37 -44.68 C21.89 -49.5, 23.42 -54.33, 25.07 -59.57 M20.37 -44.68 C21.65 -48.73, 22.93 -52.79, 25.07 -59.57 M25.07 -59.57 C26.32 -64.67, 27.57 -69.76, 28.73 -74.46 M25.07 -59.57 C26.25 -64.38, 27.43 -69.19, 28.73 -74.46 M28.73 -74.46 C29.75 -80.33, 30.78 -86.19, 31.34 -89.35 M28.73 -74.46 C29.33 -77.93, 29.94 -81.39, 31.34 -89.35 M31.34 -89.35 C31.68 -92.6, 32.02 -95.84, 32.9 -104.24 M31.34 -89.35 C31.96 -95.23, 32.57 -101.11, 32.9 -104.24 M32.9 -104.24 C33.08 -109.4, 33.27 -114.56, 33.43 -119.14 M32.9 -104.24 C33.09 -109.55, 33.28 -114.85, 33.43 -119.14 M33.43 -119.14 C33.28 -123.43, 33.12 -127.72, 32.9 -134.03 M33.43 -119.14 C33.28 -123.32, 33.13 -127.51, 32.9 -134.03 M32.9 -134.03 C32.57 -137.2, 32.24 -140.37, 31.34 -148.92 M32.9 -134.03 C32.4 -138.78, 31.9 -143.54, 31.34 -148.92 M31.34 -148.92 C30.46 -153.93, 29.58 -158.95, 28.73 -163.81 M31.34 -148.92 C30.63 -152.93, 29.93 -156.94, 28.73 -163.81 M28.73 -163.81 C27.98 -166.86, 27.23 -169.9, 25.07 -178.7 M28.73 -163.81 C27.46 -168.95, 26.2 -174.09, 25.07 -178.7 M25.07 -178.7 C23.77 -182.82, 22.47 -186.94, 20.37 -193.6 M25.07 -178.7 C23.93 -182.3, 22.8 -185.9, 20.37 -193.6 M20.37 -193.6 C19.16 -196.74, 17.94 -199.89, 14.62 -208.49 M20.37 -193.6 C18.64 -198.08, 16.91 -202.56, 14.62 -208.49 M14.62 -208.49 C12.92 -212.22, 11.22 -215.95, 7.83 -223.38 M14.62 -208.49 C12.07 -214.09, 9.51 -219.7, 7.83 -223.38 M7.83 -223.38 C5.46 -227.9, 3.08 -232.41, 0 -238.27 M7.83 -223.38 C4.7 -229.33, 1.57 -235.29, 0 -238.27" stroke="#d3d3d3" stroke-width="2" fill="none"></path></g></g><mask></mask></svg>