<svg version="1.1" xmlns="http://www.w3.org/2000/svg" viewBox="0 0 277.38330879833336 257.2268928197552" width="277.38330879833336" height="257.2268928197552" filter="invert(93%) hue-rotate(180deg)" class="excalidraw-svg">
  <!-- svg-source:excalidraw -->
  
  <defs>
    <style class="style-fonts">
      @font-face {
        font-family: "Virgil";
        src: url("https://excalidraw.com/Virgil.woff2");
      }
      @font-face {
        font-family: "Cascadia";
        src: url("https://excalidraw.com/Cascadia.woff2");
      }
      @font-face {
        font-family: "Assistant";
        src: url("https://excalidraw.com/Assistant-Regular.woff2");
      }
    </style>
    
  </defs>
  <rect x="0" y="0" width="277.38330879833336" height="257.2268928197552" fill="#ffffff"/><g stroke-linecap="round"><g transform="translate(10 128.6134464669824) rotate(0 43.93861286039241 0)"><path d="M0 0 C34.55 0, 69.1 0, 87.88 0 M0 0 C30.69 0, 61.37 0, 87.88 0" stroke="#1e1e1e" stroke-width="4" fill="none"/></g></g><mask/><g stroke-linecap="round" transform="translate(97.87722588441565 88.8827864178927) rotate(0 39.73065978539056 39.73065978539057)"><path d="M79.46 39.73 C79.46 41.62, 79.33 43.52, 79.06 45.38 C78.79 47.25, 78.38 49.12, 77.85 50.92 C77.32 52.73, 76.65 54.52, 75.87 56.24 C75.09 57.95, 74.17 59.63, 73.15 61.21 C72.14 62.8, 70.99 64.32, 69.76 65.75 C68.52 67.17, 67.17 68.52, 65.75 69.76 C64.32 70.99, 62.8 72.14, 61.21 73.15 C59.63 74.17, 57.95 75.09, 56.24 75.87 C54.52 76.65, 52.73 77.32, 50.92 77.85 C49.12 78.38, 47.25 78.79, 45.38 79.06 C43.52 79.33, 41.62 79.46, 39.73 79.46 C37.85 79.46, 35.94 79.33, 34.08 79.06 C32.21 78.79, 30.35 78.38, 28.54 77.85 C26.73 77.32, 24.94 76.65, 23.23 75.87 C21.51 75.09, 19.84 74.17, 18.25 73.15 C16.67 72.14, 15.14 70.99, 13.71 69.76 C12.29 68.52, 10.94 67.17, 9.7 65.75 C8.47 64.32, 7.33 62.8, 6.31 61.21 C5.29 59.63, 4.37 57.95, 3.59 56.24 C2.81 54.52, 2.14 52.73, 1.61 50.92 C1.08 49.12, 0.67 47.25, 0.4 45.38 C0.14 43.52, 0 41.62, 0 39.73 C0 37.85, 0.14 35.94, 0.4 34.08 C0.67 32.21, 1.08 30.35, 1.61 28.54 C2.14 26.73, 2.81 24.94, 3.59 23.23 C4.37 21.51, 5.29 19.84, 6.31 18.25 C7.33 16.67, 8.47 15.14, 9.7 13.71 C10.94 12.29, 12.29 10.94, 13.71 9.7 C15.14 8.47, 16.67 7.33, 18.25 6.31 C19.84 5.29, 21.51 4.37, 23.23 3.59 C24.94 2.81, 26.73 2.14, 28.54 1.61 C30.35 1.08, 32.21 0.67, 34.08 0.4 C35.94 0.14, 37.85 0, 39.73 0 C41.62 0, 43.52 0.14, 45.38 0.4 C47.25 0.67, 49.12 1.08, 50.92 1.61 C52.73 2.14, 54.52 2.81, 56.24 3.59 C57.95 4.37, 59.63 5.29, 61.21 6.31 C62.8 7.33, 64.32 8.47, 65.75 9.7 C67.17 10.94, 68.52 12.29, 69.76 13.71 C70.99 15.14, 72.14 16.67, 73.15 18.25 C74.17 19.84, 75.09 21.51, 75.87 23.23 C76.65 24.94, 77.32 26.73, 77.85 28.54 C78.38 30.35, 78.79 32.21, 79.06 34.08 C79.33 35.94, 79.39 38.79, 79.46 39.73 C79.53 40.67, 79.53 38.79, 79.46 39.73" stroke="#1e1e1e" stroke-width="4" fill="none"/></g><g transform="translate(120.52480890204089 107.81962724801792) rotate(0 16.9892578125 20.700000000000045)"><text x="16.9892578125" y="33.120703125" font-family="Helvetica, Segoe UI Emoji" font-size="36px" fill="#1e1e1e" text-anchor="middle" style="white-space: pre;" direction="ltr" dominant-baseline="alphabetic">W</text></g><g stroke-linecap="round"><g transform="translate(177.33854580627408 128.61344587066378) rotate(0 45.02238149602964 0)"><path d="M0 0 C33.26 0, 66.52 0, 90.04 0 M0 0 C25.93 0, 51.85 0, 90.04 0" stroke="#1e1e1e" stroke-width="4" fill="none"/></g></g><mask/><g stroke-linecap="round"><g transform="translate(137.68750461579793 10) rotate(0 -1.7763568394002505e-15 39.441393268665024)"><path d="M0 0 C0 18.03, 0 36.06, 0 78.88 M0 0 C0 20.42, 0 40.83, 0 78.88" stroke="#1e1e1e" stroke-width="4" fill="none"/></g></g><mask/><g stroke-linecap="round"><g transform="translate(137.68750489779814 168.34410628242517) rotate(0 -1.7763568394002505e-15 39.441393268665024)"><path d="M0 0 C0 29.15, 0 58.31, 0 78.88 M0 0 C0 22.71, 0 45.42, 0 78.88" stroke="#1e1e1e" stroke-width="4" fill="none"/></g></g><mask/></svg>