<svg version="1.1" xmlns="http://www.w3.org/2000/svg" viewBox="0 0 347.91425821769377 134.01402242573897" width="347.91425821769377" height="134.01402242573897" filter="invert(93%) hue-rotate(180deg)" class="excalidraw-svg">
  <!-- svg-source:excalidraw -->
  
  <defs>
    <style class="style-fonts">
      @font-face {
        font-family: "Virgil";
        src: url("https://excalidraw.com/Virgil.woff2");
      }
      @font-face {
        font-family: "Cascadia";
        src: url("https://excalidraw.com/Cascadia.woff2");
      }
      @font-face {
        font-family: "Assistant";
        src: url("https://excalidraw.com/Assistant-Regular.woff2");
      }
    </style>
    
  </defs>
  <rect x="0" y="0" width="347.91425821769377" height="134.01402242573897" fill="#ffffff"/><g stroke-linecap="round" transform="translate(45.32894979763006 25.078977410306578) rotate(0 127.19960800317378 49.4675225077162)"><path d="M254.4 49.47 C254.4 51.08, 254.19 52.71, 253.79 54.32 C253.38 55.92, 252.77 57.53, 251.96 59.12 C251.14 60.7, 250.13 62.28, 248.92 63.83 C247.72 65.37, 246.31 66.9, 244.72 68.4 C243.13 69.89, 241.34 71.36, 239.38 72.79 C237.42 74.21, 235.27 75.61, 232.96 76.95 C230.65 78.29, 228.16 79.6, 225.53 80.85 C222.89 82.1, 220.08 83.3, 217.14 84.45 C214.2 85.59, 211.11 86.68, 207.89 87.71 C204.68 88.73, 201.32 89.7, 197.87 90.6 C194.41 91.5, 190.83 92.33, 187.16 93.09 C183.5 93.86, 179.72 94.55, 175.88 95.17 C172.04 95.79, 168.1 96.34, 164.12 96.8 C160.15 97.27, 156.09 97.67, 152.02 97.98 C147.94 98.3, 143.8 98.54, 139.67 98.7 C135.53 98.86, 131.36 98.94, 127.2 98.94 C123.04 98.94, 118.87 98.86, 114.73 98.7 C110.6 98.54, 106.46 98.3, 102.38 97.98 C98.31 97.67, 94.25 97.27, 90.28 96.8 C86.3 96.34, 82.36 95.79, 78.52 95.17 C74.68 94.55, 70.9 93.86, 67.24 93.09 C63.57 92.33, 59.99 91.5, 56.53 90.6 C53.08 89.7, 49.72 88.73, 46.51 87.71 C43.29 86.68, 40.19 85.59, 37.26 84.45 C34.32 83.3, 31.51 82.1, 28.87 80.85 C26.24 79.6, 23.75 78.29, 21.44 76.95 C19.13 75.61, 16.98 74.21, 15.02 72.79 C13.06 71.36, 11.27 69.89, 9.68 68.4 C8.09 66.9, 6.68 65.37, 5.48 63.83 C4.27 62.28, 3.25 60.7, 2.44 59.12 C1.63 57.53, 1.02 55.92, 0.61 54.32 C0.21 52.71, 0 51.08, 0 49.47 C0 47.85, 0.21 46.23, 0.61 44.62 C1.02 43.01, 1.63 41.4, 2.44 39.82 C3.25 38.23, 4.27 36.65, 5.48 35.11 C6.68 33.56, 8.09 32.03, 9.68 30.54 C11.27 29.04, 13.06 27.57, 15.02 26.15 C16.98 24.72, 19.13 23.33, 21.44 21.98 C23.75 20.64, 26.24 19.34, 28.87 18.09 C31.51 16.84, 34.32 15.63, 37.26 14.49 C40.19 13.35, 43.29 12.25, 46.51 11.23 C49.72 10.2, 53.08 9.23, 56.53 8.34 C59.99 7.44, 63.57 6.6, 67.24 5.84 C70.9 5.08, 74.68 4.38, 78.52 3.77 C82.36 3.15, 86.3 2.6, 90.28 2.13 C94.25 1.66, 98.31 1.27, 102.38 0.95 C106.46 0.64, 110.6 0.4, 114.73 0.24 C118.87 0.08, 123.04 0, 127.2 0 C131.36 0, 135.53 0.08, 139.67 0.24 C143.8 0.4, 147.94 0.64, 152.02 0.95 C156.09 1.27, 160.15 1.66, 164.12 2.13 C168.1 2.6, 172.04 3.15, 175.88 3.77 C179.72 4.38, 183.5 5.08, 187.16 5.84 C190.83 6.6, 194.41 7.44, 197.87 8.34 C201.32 9.23, 204.68 10.2, 207.89 11.23 C211.11 12.25, 214.2 13.35, 217.14 14.49 C220.08 15.63, 222.89 16.84, 225.53 18.09 C228.16 19.34, 230.65 20.64, 232.96 21.98 C235.27 23.33, 237.42 24.72, 239.38 26.15 C241.34 27.57, 243.13 29.04, 244.72 30.54 C246.31 32.03, 247.72 33.56, 248.92 35.11 C250.13 36.65, 251.14 38.23, 251.96 39.82 C252.77 41.4, 253.38 43.01, 253.79 44.62 C254.19 46.23, 254.3 48.66, 254.4 49.47 C254.5 50.28, 254.5 48.66, 254.4 49.47" stroke="#1e1e1e" stroke-width="2" fill="none"/></g><g stroke-linecap="round" transform="translate(10 10) rotate(0 163.95712910884689 37.41047626684133)"><path d="M0 0 L327.91 0 L327.91 74.82 L0 74.82" stroke="none" stroke-width="0" fill="#ffffff"/><path d="M0 0 C83.64 0, 167.28 0, 327.91 0 M0 0 C115.41 0, 230.83 0, 327.91 0 M327.91 0 C327.91 25.89, 327.91 51.79, 327.91 74.82 M327.91 0 C327.91 16.89, 327.91 33.77, 327.91 74.82 M327.91 74.82 C208.5 74.82, 89.09 74.82, 0 74.82 M327.91 74.82 C228.3 74.82, 128.68 74.82, 0 74.82 M0 74.82 C0 59.56, 0 44.29, 0 0 M0 74.82 C0 45.93, 0 17.04, 0 0" stroke="transparent" stroke-width="2" fill="none"/></g><g stroke-linecap="round" transform="translate(153.98387243988086 84.82095168654219) rotate(0 18.544685469776027 18.544685469776027)"><path d="M37.09 18.54 C37.09 19.62, 36.99 20.71, 36.81 21.76 C36.62 22.82, 36.34 23.88, 35.97 24.89 C35.6 25.9, 35.14 26.89, 34.6 27.82 C34.07 28.75, 33.44 29.64, 32.75 30.46 C32.06 31.29, 31.29 32.06, 30.46 32.75 C29.64 33.44, 28.75 34.07, 27.82 34.6 C26.89 35.14, 25.9 35.6, 24.89 35.97 C23.88 36.34, 22.82 36.62, 21.76 36.81 C20.71 36.99, 19.62 37.09, 18.54 37.09 C17.47 37.09, 16.38 36.99, 15.32 36.81 C14.27 36.62, 13.21 36.34, 12.2 35.97 C11.19 35.6, 10.2 35.14, 9.27 34.6 C8.34 34.07, 7.45 33.44, 6.62 32.75 C5.8 32.06, 5.03 31.29, 4.34 30.46 C3.65 29.64, 3.02 28.75, 2.48 27.82 C1.95 26.89, 1.49 25.9, 1.12 24.89 C0.75 23.88, 0.47 22.82, 0.28 21.76 C0.1 20.71, 0 19.62, 0 18.54 C0 17.47, 0.1 16.38, 0.28 15.32 C0.47 14.27, 0.75 13.21, 1.12 12.2 C1.49 11.19, 1.95 10.2, 2.48 9.27 C3.02 8.34, 3.65 7.45, 4.34 6.62 C5.03 5.8, 5.8 5.03, 6.62 4.34 C7.45 3.65, 8.34 3.02, 9.27 2.48 C10.2 1.95, 11.19 1.49, 12.2 1.12 C13.21 0.75, 14.27 0.47, 15.32 0.28 C16.38 0.1, 17.47 0, 18.54 0 C19.62 0, 20.71 0.1, 21.76 0.28 C22.82 0.47, 23.88 0.75, 24.89 1.12 C25.9 1.49, 26.89 1.95, 27.82 2.48 C28.75 3.02, 29.64 3.65, 30.46 4.34 C31.29 5.03, 32.06 5.8, 32.75 6.62 C33.44 7.45, 34.07 8.34, 34.6 9.27 C35.14 10.2, 35.6 11.19, 35.97 12.2 C36.34 13.21, 36.62 14.27, 36.81 15.32 C36.99 16.38, 37.04 18.01, 37.09 18.54 C37.14 19.08, 37.14 18.01, 37.09 18.54" stroke="none" stroke-width="0" fill="#ffffff"/><path d="M37.09 18.54 C37.09 19.62, 36.99 20.71, 36.81 21.76 C36.62 22.82, 36.34 23.88, 35.97 24.89 C35.6 25.9, 35.14 26.89, 34.6 27.82 C34.07 28.75, 33.44 29.64, 32.75 30.46 C32.06 31.29, 31.29 32.06, 30.46 32.75 C29.64 33.44, 28.75 34.07, 27.82 34.6 C26.89 35.14, 25.9 35.6, 24.89 35.97 C23.88 36.34, 22.82 36.62, 21.76 36.81 C20.71 36.99, 19.62 37.09, 18.54 37.09 C17.47 37.09, 16.38 36.99, 15.32 36.81 C14.27 36.62, 13.21 36.34, 12.2 35.97 C11.19 35.6, 10.2 35.14, 9.27 34.6 C8.34 34.07, 7.45 33.44, 6.62 32.75 C5.8 32.06, 5.03 31.29, 4.34 30.46 C3.65 29.64, 3.02 28.75, 2.48 27.82 C1.95 26.89, 1.49 25.9, 1.12 24.89 C0.75 23.88, 0.47 22.82, 0.28 21.76 C0.1 20.71, 0 19.62, 0 18.54 C0 17.47, 0.1 16.38, 0.28 15.32 C0.47 14.27, 0.75 13.21, 1.12 12.2 C1.49 11.19, 1.95 10.2, 2.48 9.27 C3.02 8.34, 3.65 7.45, 4.34 6.62 C5.03 5.8, 5.8 5.03, 6.62 4.34 C7.45 3.65, 8.34 3.02, 9.27 2.48 C10.2 1.95, 11.19 1.49, 12.2 1.12 C13.21 0.75, 14.27 0.47, 15.32 0.28 C16.38 0.1, 17.47 0, 18.54 0 C19.62 0, 20.71 0.1, 21.76 0.28 C22.82 0.47, 23.88 0.75, 24.89 1.12 C25.9 1.49, 26.89 1.95, 27.82 2.48 C28.75 3.02, 29.64 3.65, 30.46 4.34 C31.29 5.03, 32.06 5.8, 32.75 6.62 C33.44 7.45, 34.07 8.34, 34.6 9.27 C35.14 10.2, 35.6 11.19, 35.97 12.2 C36.34 13.21, 36.62 14.27, 36.81 15.32 C36.99 16.38, 37.04 18.01, 37.09 18.54 C37.14 19.08, 37.14 18.01, 37.09 18.54" stroke="#1e1e1e" stroke-width="2" fill="none"/></g></svg>