<svg version="1.1" xmlns="http://www.w3.org/2000/svg" viewBox="0 0 653.6161906461842 92.7341626700711" width="653.6161906461842" height="92.7341626700711" filter="invert(93%) hue-rotate(180deg)" class="excalidraw-svg">
  <!-- svg-source:excalidraw -->
  
  <defs>
    <style class="style-fonts">
      @font-face {
        font-family: "Virgil";
        src: url("https://excalidraw.com/Virgil.woff2");
      }
      @font-face {
        font-family: "Cascadia";
        src: url("https://excalidraw.com/Cascadia.woff2");
      }
      @font-face {
        font-family: "Assistant";
        src: url("https://excalidraw.com/Assistant-Regular.woff2");
      }
    </style>
    
  </defs>
  <rect x="0" y="0" width="653.6161906461842" height="92.7341626700711" fill="#ffffff"/><g stroke-linecap="round"><g transform="translate(10 46.36708127185784) rotate(0 80.27526624150826 0)"><path d="M0 0 C47.29 0, 94.57 0, 160.55 0 M0 0 C46.18 0, 92.35 0, 160.55 0" stroke="#1e1e1e" stroke-width="4" fill="none"/></g></g><mask/><g stroke-linecap="round"><g transform="translate(247.531577109192 46.36708076845616) rotate(0 80 0)"><path d="M0 0 C60.93 0, 121.85 0, 160 0 M0 0 C40.28 0, 80.56 0, 160 0" stroke="#1e1e1e" stroke-width="4" fill="none"/></g></g><mask/><g stroke-linecap="round" transform="translate(172.3987074000641 10.000000799937652) rotate(0 36.367080935066724 36.367080935066724)"><path d="M0 0 C16.91 0, 33.82 0, 72.73 0 M0 0 C22.75 0, 45.5 0, 72.73 0 M72.73 0 C72.73 17.86, 72.73 35.72, 72.73 72.73 M72.73 0 C72.73 22.24, 72.73 44.47, 72.73 72.73 M72.73 72.73 C57.81 72.73, 42.88 72.73, 0 72.73 M72.73 72.73 C51.53 72.73, 30.33 72.73, 0 72.73 M0 72.73 C0 46.99, 0 21.24, 0 0 M0 72.73 C0 49.99, 0 27.25, 0 0" stroke="#1e1e1e" stroke-width="4" fill="none"/></g><g transform="translate(195.76676489763082 25.66708173500433) rotate(0 12.9990234375 20.69999999999999)"><text x="12.9990234375" y="33.120703125" font-family="Helvetica, Segoe UI Emoji" font-size="36px" fill="#1e1e1e" text-anchor="middle" style="white-space: pre;" direction="ltr" dominant-baseline="alphabetic">R</text></g><g stroke-linecap="round"><g transform="translate(246.0846135369922 46.36708047192019) rotate(0 80.27526624150826 0)"><path d="M0 0 C37.75 0, 75.5 0, 160.55 0 M0 0 C33.99 0, 67.99 0, 160.55 0" stroke="#1e1e1e" stroke-width="4" fill="none"/></g></g><mask/><g stroke-linecap="round"><g transform="translate(483.61619064618424 46.36707996851851) rotate(0 80.00000000000001 0)"><path d="M0 0 C43.39 0, 86.77 0, 160 0 M0 0 C35.33 0, 70.66 0, 160 0" stroke="#1e1e1e" stroke-width="4" fill="none"/></g></g><mask/><g stroke-linecap="round" transform="translate(408.4833209370563 10) rotate(0 36.367080935066724 36.367080935066724)"><path d="M0 0 C25.92 0, 51.83 0, 72.73 0 M0 0 C16.84 0, 33.68 0, 72.73 0 M72.73 0 C72.73 27.15, 72.73 54.29, 72.73 72.73 M72.73 0 C72.73 25.14, 72.73 50.28, 72.73 72.73 M72.73 72.73 C52.51 72.73, 32.28 72.73, 0 72.73 M72.73 72.73 C49.57 72.73, 26.41 72.73, 0 72.73 M0 72.73 C0 47.53, 0 22.34, 0 0 M0 72.73 C0 53.44, 0 34.14, 0 0" stroke="#1e1e1e" stroke-width="4" fill="none"/></g><g transform="translate(431.85137843462303 25.66708093506668) rotate(0 12.9990234375 20.69999999999999)"><text x="12.9990234375" y="33.120703125" font-family="Helvetica, Segoe UI Emoji" font-size="36px" fill="#1e1e1e" text-anchor="middle" style="white-space: pre;" direction="ltr" dominant-baseline="alphabetic">R</text></g></svg>