<svg version="1.1" xmlns="http://www.w3.org/2000/svg" viewBox="0 0 270.2671993941643 137.39751073919683" width="270.2671993941643" height="137.39751073919683" filter="invert(93%) hue-rotate(180deg)" class="excalidraw-svg">
  <!-- svg-source:excalidraw -->
  
  <defs>
    <style class="style-fonts">
      @font-face {
        font-family: "Virgil";
        src: url("https://excalidraw.com/Virgil.woff2");
      }
      @font-face {
        font-family: "Cascadia";
        src: url("https://excalidraw.com/Cascadia.woff2");
      }
      @font-face {
        font-family: "Assistant";
        src: url("https://excalidraw.com/Assistant-Regular.woff2");
      }
    </style>
    
  </defs>
  <rect x="0" y="0" width="270.2671993941643" height="137.39751073919683" fill="#ffffff"/><g stroke-linecap="round" transform="translate(24.404579268218356 47.08937031345786) rotate(0 110.72901976787966 36.9675225077162)"><path d="M221.46 36.97 C221.46 38.26, 221.25 39.55, 220.85 40.83 C220.45 42.11, 219.84 43.39, 219.04 44.65 C218.24 45.91, 217.23 47.17, 216.04 48.39 C214.85 49.62, 213.45 50.83, 211.89 52 C210.32 53.18, 208.55 54.34, 206.62 55.45 C204.69 56.57, 202.58 57.65, 200.31 58.7 C198.04 59.74, 195.6 60.75, 193.02 61.7 C190.44 62.66, 187.69 63.58, 184.82 64.44 C181.95 65.3, 178.94 66.12, 175.81 66.87 C172.69 67.63, 169.43 68.34, 166.09 68.98 C162.75 69.63, 159.29 70.22, 155.77 70.74 C152.24 71.26, 148.62 71.73, 144.95 72.13 C141.28 72.52, 137.52 72.86, 133.75 73.13 C129.98 73.4, 126.14 73.6, 122.3 73.73 C118.47 73.87, 114.59 73.94, 110.73 73.94 C106.87 73.94, 102.99 73.87, 99.15 73.73 C95.32 73.6, 91.48 73.4, 87.71 73.13 C83.93 72.86, 80.18 72.52, 76.51 72.13 C72.84 71.73, 69.22 71.26, 65.69 70.74 C62.17 70.22, 58.71 69.63, 55.36 68.98 C52.02 68.34, 48.77 67.63, 45.64 66.87 C42.52 66.12, 39.5 65.3, 36.64 64.44 C33.77 63.58, 31.02 62.66, 28.44 61.7 C25.86 60.75, 23.42 59.74, 21.15 58.7 C18.88 57.65, 16.76 56.57, 14.83 55.45 C12.91 54.34, 11.14 53.18, 9.57 52 C8 50.83, 6.61 49.62, 5.42 48.39 C4.23 47.17, 3.22 45.91, 2.42 44.65 C1.62 43.39, 1.01 42.11, 0.61 40.83 C0.2 39.55, 0 38.26, 0 36.97 C0 35.68, 0.2 34.38, 0.61 33.1 C1.01 31.82, 1.62 30.54, 2.42 29.28 C3.22 28.02, 4.23 26.77, 5.42 25.54 C6.61 24.32, 8 23.11, 9.57 21.93 C11.14 20.75, 12.91 19.6, 14.83 18.48 C16.76 17.37, 18.88 16.28, 21.15 15.24 C23.42 14.2, 25.86 13.19, 28.44 12.23 C31.02 11.27, 33.77 10.36, 36.64 9.5 C39.5 8.63, 42.52 7.82, 45.64 7.06 C48.77 6.3, 52.02 5.6, 55.36 4.95 C58.71 4.31, 62.17 3.72, 65.69 3.2 C69.22 2.67, 72.84 2.21, 76.51 1.81 C80.18 1.41, 83.93 1.08, 87.71 0.81 C91.48 0.54, 95.32 0.34, 99.15 0.2 C102.99 0.07, 106.87 0, 110.73 0 C114.59 0, 118.47 0.07, 122.3 0.2 C126.14 0.34, 129.98 0.54, 133.75 0.81 C137.52 1.08, 141.28 1.41, 144.95 1.81 C148.62 2.21, 152.24 2.67, 155.77 3.2 C159.29 3.72, 162.75 4.31, 166.09 4.95 C169.43 5.6, 172.69 6.3, 175.81 7.06 C178.94 7.82, 181.95 8.63, 184.82 9.5 C187.69 10.36, 190.44 11.27, 193.02 12.23 C195.6 13.19, 198.04 14.2, 200.31 15.24 C202.58 16.28, 204.69 17.37, 206.62 18.48 C208.55 19.6, 210.32 20.75, 211.89 21.93 C213.45 23.11, 214.85 24.32, 216.04 25.54 C217.23 26.77, 218.24 28.02, 219.04 29.28 C219.84 30.54, 220.45 31.82, 220.85 33.1 C221.25 34.38, 221.36 36.32, 221.46 36.97 C221.56 37.61, 221.56 36.32, 221.46 36.97" stroke="#1e1e1e" stroke-width="2" fill="none"/></g><g stroke-linecap="round" transform="translate(10 74.07655820551417) rotate(0 125.13359969708218 26.66047626684133)"><path d="M0 0 L250.27 0 L250.27 53.32 L0 53.32" stroke="none" stroke-width="0" fill="#ffffff"/><path d="M0 0 C63.83 0, 127.67 0, 250.27 0 M0 0 C88.08 0, 176.17 0, 250.27 0 M250.27 0 C250.27 18.45, 250.27 36.91, 250.27 53.32 M250.27 0 C250.27 12.03, 250.27 24.07, 250.27 53.32 M250.27 53.32 C159.13 53.32, 68 53.32, 0 53.32 M250.27 53.32 C174.24 53.32, 98.21 53.32, 0 53.32 M0 53.32 C0 42.44, 0 31.56, 0 0 M0 53.32 C0 32.73, 0 12.15, 0 0" stroke="transparent" stroke-width="2" fill="none"/></g><g stroke-linecap="round" transform="translate(116.58891408693975 10) rotate(0 18.544685469776027 18.544685469776027)"><path d="M37.09 18.54 C37.09 19.62, 36.99 20.71, 36.81 21.76 C36.62 22.82, 36.34 23.88, 35.97 24.89 C35.6 25.9, 35.14 26.89, 34.6 27.82 C34.07 28.75, 33.44 29.64, 32.75 30.46 C32.06 31.29, 31.29 32.06, 30.46 32.75 C29.64 33.44, 28.75 34.07, 27.82 34.6 C26.89 35.14, 25.9 35.6, 24.89 35.97 C23.88 36.34, 22.82 36.62, 21.76 36.81 C20.71 36.99, 19.62 37.09, 18.54 37.09 C17.47 37.09, 16.38 36.99, 15.32 36.81 C14.27 36.62, 13.21 36.34, 12.2 35.97 C11.19 35.6, 10.2 35.14, 9.27 34.6 C8.34 34.07, 7.45 33.44, 6.62 32.75 C5.8 32.06, 5.03 31.29, 4.34 30.46 C3.65 29.64, 3.02 28.75, 2.48 27.82 C1.95 26.89, 1.49 25.9, 1.12 24.89 C0.75 23.88, 0.47 22.82, 0.28 21.76 C0.1 20.71, 0 19.62, 0 18.54 C0 17.47, 0.1 16.38, 0.28 15.32 C0.47 14.27, 0.75 13.21, 1.12 12.2 C1.49 11.19, 1.95 10.2, 2.48 9.27 C3.02 8.34, 3.65 7.45, 4.34 6.62 C5.03 5.8, 5.8 5.03, 6.62 4.34 C7.45 3.65, 8.34 3.02, 9.27 2.48 C10.2 1.95, 11.19 1.49, 12.2 1.12 C13.21 0.75, 14.27 0.47, 15.32 0.28 C16.38 0.1, 17.47 0, 18.54 0 C19.62 0, 20.71 0.1, 21.76 0.28 C22.82 0.47, 23.88 0.75, 24.89 1.12 C25.9 1.49, 26.89 1.95, 27.82 2.48 C28.75 3.02, 29.64 3.65, 30.46 4.34 C31.29 5.03, 32.06 5.8, 32.75 6.62 C33.44 7.45, 34.07 8.34, 34.6 9.27 C35.14 10.2, 35.6 11.19, 35.97 12.2 C36.34 13.21, 36.62 14.27, 36.81 15.32 C36.99 16.38, 37.04 18.01, 37.09 18.54 C37.14 19.08, 37.14 18.01, 37.09 18.54" stroke="none" stroke-width="0" fill="#ffffff"/><path d="M37.09 18.54 C37.09 19.62, 36.99 20.71, 36.81 21.76 C36.62 22.82, 36.34 23.88, 35.97 24.89 C35.6 25.9, 35.14 26.89, 34.6 27.82 C34.07 28.75, 33.44 29.64, 32.75 30.46 C32.06 31.29, 31.29 32.06, 30.46 32.75 C29.64 33.44, 28.75 34.07, 27.82 34.6 C26.89 35.14, 25.9 35.6, 24.89 35.97 C23.88 36.34, 22.82 36.62, 21.76 36.81 C20.71 36.99, 19.62 37.09, 18.54 37.09 C17.47 37.09, 16.38 36.99, 15.32 36.81 C14.27 36.62, 13.21 36.34, 12.2 35.97 C11.19 35.6, 10.2 35.14, 9.27 34.6 C8.34 34.07, 7.45 33.44, 6.62 32.75 C5.8 32.06, 5.03 31.29, 4.34 30.46 C3.65 29.64, 3.02 28.75, 2.48 27.82 C1.95 26.89, 1.49 25.9, 1.12 24.89 C0.75 23.88, 0.47 22.82, 0.28 21.76 C0.1 20.71, 0 19.62, 0 18.54 C0 17.47, 0.1 16.38, 0.28 15.32 C0.47 14.27, 0.75 13.21, 1.12 12.2 C1.49 11.19, 1.95 10.2, 2.48 9.27 C3.02 8.34, 3.65 7.45, 4.34 6.62 C5.03 5.8, 5.8 5.03, 6.62 4.34 C7.45 3.65, 8.34 3.02, 9.27 2.48 C10.2 1.95, 11.19 1.49, 12.2 1.12 C13.21 0.75, 14.27 0.47, 15.32 0.28 C16.38 0.1, 17.47 0, 18.54 0 C19.62 0, 20.71 0.1, 21.76 0.28 C22.82 0.47, 23.88 0.75, 24.89 1.12 C25.9 1.49, 26.89 1.95, 27.82 2.48 C28.75 3.02, 29.64 3.65, 30.46 4.34 C31.29 5.03, 32.06 5.8, 32.75 6.62 C33.44 7.45, 34.07 8.34, 34.6 9.27 C35.14 10.2, 35.6 11.19, 35.97 12.2 C36.34 13.21, 36.62 14.27, 36.81 15.32 C36.99 16.38, 37.04 18.01, 37.09 18.54 C37.14 19.08, 37.14 18.01, 37.09 18.54" stroke="#1e1e1e" stroke-width="2" fill="none"/></g></svg>