<svg version="1.1" xmlns="http://www.w3.org/2000/svg" viewBox="0 0 245.43927869538314 57.089370939552055" width="245.43927869538314" height="57.089370939552055" filter="invert(93%) hue-rotate(180deg)" class="excalidraw-svg">
  <!-- svg-source:excalidraw -->
  
  <defs>
    <style class="style-fonts">
      @font-face {
        font-family: "Virgil";
        src: url("https://excalidraw.com/Virgil.woff2");
      }
      @font-face {
        font-family: "Cascadia";
        src: url("https://excalidraw.com/Cascadia.woff2");
      }
      @font-face {
        font-family: "Assistant";
        src: url("https://excalidraw.com/Assistant-Regular.woff2");
      }
    </style>
    
  </defs>
  <rect x="0" y="0" width="245.43927869538314" height="57.089370939552055" fill="#ffffff"/><g stroke-linecap="round"><g transform="translate(10 47.08937071977604) rotate(0 112.71963934769157 0)"><path d="M0 0 C74.28 0, 148.56 0, 225.44 0 M0 0 C85.57 0, 171.14 0, 225.44 0" stroke="#1e1e1e" stroke-width="2" fill="none"/></g></g><mask/><g stroke-linecap="round" transform="translate(104.17495387791553 10) rotate(0 18.544685469776027 18.544685469776027)"><path d="M37.09 18.54 C37.09 19.62, 36.99 20.71, 36.81 21.76 C36.62 22.82, 36.34 23.88, 35.97 24.89 C35.6 25.9, 35.14 26.89, 34.6 27.82 C34.07 28.75, 33.44 29.64, 32.75 30.46 C32.06 31.29, 31.29 32.06, 30.46 32.75 C29.64 33.44, 28.75 34.07, 27.82 34.6 C26.89 35.14, 25.9 35.6, 24.89 35.97 C23.88 36.34, 22.82 36.62, 21.76 36.81 C20.71 36.99, 19.62 37.09, 18.54 37.09 C17.47 37.09, 16.38 36.99, 15.32 36.81 C14.27 36.62, 13.21 36.34, 12.2 35.97 C11.19 35.6, 10.2 35.14, 9.27 34.6 C8.34 34.07, 7.45 33.44, 6.62 32.75 C5.8 32.06, 5.03 31.29, 4.34 30.46 C3.65 29.64, 3.02 28.75, 2.48 27.82 C1.95 26.89, 1.49 25.9, 1.12 24.89 C0.75 23.88, 0.47 22.82, 0.28 21.76 C0.1 20.71, 0 19.62, 0 18.54 C0 17.47, 0.1 16.38, 0.28 15.32 C0.47 14.27, 0.75 13.21, 1.12 12.2 C1.49 11.19, 1.95 10.2, 2.48 9.27 C3.02 8.34, 3.65 7.45, 4.34 6.62 C5.03 5.8, 5.8 5.03, 6.62 4.34 C7.45 3.65, 8.34 3.02, 9.27 2.48 C10.2 1.95, 11.19 1.49, 12.2 1.12 C13.21 0.75, 14.27 0.47, 15.32 0.28 C16.38 0.1, 17.47 0, 18.54 0 C19.62 0, 20.71 0.1, 21.76 0.28 C22.82 0.47, 23.88 0.75, 24.89 1.12 C25.9 1.49, 26.89 1.95, 27.82 2.48 C28.75 3.02, 29.64 3.65, 30.46 4.34 C31.29 5.03, 32.06 5.8, 32.75 6.62 C33.44 7.45, 34.07 8.34, 34.6 9.27 C35.14 10.2, 35.6 11.19, 35.97 12.2 C36.34 13.21, 36.62 14.27, 36.81 15.32 C36.99 16.38, 37.04 18.01, 37.09 18.54 C37.14 19.08, 37.14 18.01, 37.09 18.54" stroke="none" stroke-width="0" fill="#ffffff"/><path d="M37.09 18.54 C37.09 19.62, 36.99 20.71, 36.81 21.76 C36.62 22.82, 36.34 23.88, 35.97 24.89 C35.6 25.9, 35.14 26.89, 34.6 27.82 C34.07 28.75, 33.44 29.64, 32.75 30.46 C32.06 31.29, 31.29 32.06, 30.46 32.75 C29.64 33.44, 28.75 34.07, 27.82 34.6 C26.89 35.14, 25.9 35.6, 24.89 35.97 C23.88 36.34, 22.82 36.62, 21.76 36.81 C20.71 36.99, 19.62 37.09, 18.54 37.09 C17.47 37.09, 16.38 36.99, 15.32 36.81 C14.27 36.62, 13.21 36.34, 12.2 35.97 C11.19 35.6, 10.2 35.14, 9.27 34.6 C8.34 34.07, 7.45 33.44, 6.62 32.75 C5.8 32.06, 5.03 31.29, 4.34 30.46 C3.65 29.64, 3.02 28.75, 2.48 27.82 C1.95 26.89, 1.49 25.9, 1.12 24.89 C0.75 23.88, 0.47 22.82, 0.28 21.76 C0.1 20.71, 0 19.62, 0 18.54 C0 17.47, 0.1 16.38, 0.28 15.32 C0.47 14.27, 0.75 13.21, 1.12 12.2 C1.49 11.19, 1.95 10.2, 2.48 9.27 C3.02 8.34, 3.65 7.45, 4.34 6.62 C5.03 5.8, 5.8 5.03, 6.62 4.34 C7.45 3.65, 8.34 3.02, 9.27 2.48 C10.2 1.95, 11.19 1.49, 12.2 1.12 C13.21 0.75, 14.27 0.47, 15.32 0.28 C16.38 0.1, 17.47 0, 18.54 0 C19.62 0, 20.71 0.1, 21.76 0.28 C22.82 0.47, 23.88 0.75, 24.89 1.12 C25.9 1.49, 26.89 1.95, 27.82 2.48 C28.75 3.02, 29.64 3.65, 30.46 4.34 C31.29 5.03, 32.06 5.8, 32.75 6.62 C33.44 7.45, 34.07 8.34, 34.6 9.27 C35.14 10.2, 35.6 11.19, 35.97 12.2 C36.34 13.21, 36.62 14.27, 36.81 15.32 C36.99 16.38, 37.04 18.01, 37.09 18.54 C37.14 19.08, 37.14 18.01, 37.09 18.54" stroke="#1e1e1e" stroke-width="2" fill="none"/></g></svg>