<svg version="1.1" xmlns="http://www.w3.org/2000/svg" viewBox="0 0 473.5640082036385 467.6040016186507" width="473.5640082036385" height="467.6040016186507" filter="invert(93%) hue-rotate(180deg)" class="excalidraw-svg">
  <!-- svg-source:excalidraw -->
  
  <defs>
    <style class="style-fonts">
      @font-face {
        font-family: "Virgil";
        src: url("https://excalidraw.com/Virgil.woff2");
      }
      @font-face {
        font-family: "Cascadia";
        src: url("https://excalidraw.com/Cascadia.woff2");
      }
      @font-face {
        font-family: "Assistant";
        src: url("https://excalidraw.com/Assistant-Regular.woff2");
      }
    </style>
    
  </defs>
  <rect x="0" y="0" width="473.5640082036385" height="467.6040016186507" fill="#ffffff"/><g stroke-linecap="round" transform="translate(49.33166264547731 159.42218343683226) rotate(0 149.0909090909092 149.0909090909092)"><path d="M298.18 149.09 C298.18 152.99, 298.03 156.9, 297.72 160.79 C297.42 164.68, 296.96 168.56, 296.35 172.41 C295.74 176.27, 294.97 180.1, 294.06 183.9 C293.15 187.69, 292.09 191.45, 290.88 195.16 C289.68 198.87, 288.33 202.54, 286.83 206.15 C285.34 209.75, 283.7 213.3, 281.93 216.78 C280.16 220.25, 278.25 223.67, 276.21 226.99 C274.17 230.32, 272 233.57, 269.71 236.72 C267.42 239.88, 264.99 242.95, 262.46 245.92 C259.93 248.88, 257.27 251.76, 254.51 254.51 C251.76 257.27, 248.88 259.93, 245.92 262.46 C242.95 264.99, 239.88 267.42, 236.72 269.71 C233.57 272, 230.32 274.17, 226.99 276.21 C223.67 278.25, 220.25 280.16, 216.78 281.93 C213.3 283.7, 209.75 285.34, 206.15 286.83 C202.54 288.33, 198.87 289.68, 195.16 290.88 C191.45 292.09, 187.69 293.15, 183.9 294.06 C180.1 294.97, 176.27 295.74, 172.41 296.35 C168.56 296.96, 164.68 297.42, 160.79 297.72 C156.9 298.03, 152.99 298.18, 149.09 298.18 C145.19 298.18, 141.28 298.03, 137.39 297.72 C133.51 297.42, 129.62 296.96, 125.77 296.35 C121.92 295.74, 118.08 294.97, 114.29 294.06 C110.49 293.15, 106.73 292.09, 103.02 290.88 C99.31 289.68, 95.64 288.33, 92.04 286.83 C88.43 285.34, 84.88 283.7, 81.41 281.93 C77.93 280.16, 74.52 278.25, 71.19 276.21 C67.87 274.17, 64.61 272, 61.46 269.71 C58.3 267.42, 55.23 264.99, 52.26 262.46 C49.3 259.93, 46.42 257.27, 43.67 254.51 C40.91 251.76, 38.25 248.88, 35.72 245.92 C33.19 242.95, 30.77 239.88, 28.47 236.72 C26.18 233.57, 24.01 230.32, 21.97 226.99 C19.93 223.67, 18.02 220.25, 16.25 216.78 C14.48 213.3, 12.84 209.75, 11.35 206.15 C9.86 202.54, 8.5 198.87, 7.3 195.16 C6.09 191.45, 5.03 187.69, 4.12 183.9 C3.21 180.1, 2.45 176.27, 1.84 172.41 C1.23 168.56, 0.77 164.68, 0.46 160.79 C0.15 156.9, 0 152.99, 0 149.09 C0 145.19, 0.15 141.28, 0.46 137.39 C0.77 133.51, 1.23 129.62, 1.84 125.77 C2.45 121.92, 3.21 118.08, 4.12 114.29 C5.03 110.49, 6.09 106.73, 7.3 103.02 C8.5 99.31, 9.86 95.64, 11.35 92.04 C12.84 88.43, 14.48 84.88, 16.25 81.41 C18.02 77.93, 19.93 74.52, 21.97 71.19 C24.01 67.87, 26.18 64.61, 28.47 61.46 C30.77 58.3, 33.19 55.23, 35.72 52.26 C38.25 49.3, 40.91 46.42, 43.67 43.67 C46.42 40.91, 49.3 38.25, 52.26 35.72 C55.23 33.19, 58.3 30.77, 61.46 28.47 C64.61 26.18, 67.87 24.01, 71.19 21.97 C74.52 19.93, 77.93 18.02, 81.41 16.25 C84.88 14.48, 88.43 12.84, 92.04 11.35 C95.64 9.86, 99.31 8.5, 103.02 7.3 C106.73 6.09, 110.49 5.03, 114.29 4.12 C118.08 3.21, 121.92 2.45, 125.77 1.84 C129.62 1.23, 133.51 0.77, 137.39 0.46 C141.28 0.15, 145.19 0, 149.09 0 C152.99 0, 156.9 0.15, 160.79 0.46 C164.68 0.77, 168.56 1.23, 172.41 1.84 C176.27 2.45, 180.1 3.21, 183.9 4.12 C187.69 5.03, 191.45 6.09, 195.16 7.3 C198.87 8.5, 202.54 9.86, 206.15 11.35 C209.75 12.84, 213.3 14.48, 216.78 16.25 C220.25 18.02, 223.67 19.93, 226.99 21.97 C230.32 24.01, 233.57 26.18, 236.72 28.47 C239.88 30.77, 242.95 33.19, 245.92 35.72 C248.88 38.25, 251.76 40.91, 254.51 43.67 C257.27 46.42, 259.93 49.3, 262.46 52.26 C264.99 55.23, 267.42 58.3, 269.71 61.46 C272 64.61, 274.17 67.87, 276.21 71.19 C278.25 74.52, 280.16 77.93, 281.93 81.41 C283.7 84.88, 285.34 88.43, 286.83 92.04 C288.33 95.64, 289.68 99.31, 290.88 103.02 C292.09 106.73, 293.15 110.49, 294.06 114.29 C294.97 118.08, 295.74 121.92, 296.35 125.77 C296.96 129.62, 297.42 133.51, 297.72 137.39 C298.03 141.28, 298.18 145.19, 298.18 149.09" stroke="#1e1e1e" stroke-width="2" fill="none"/></g><g stroke-linecap="round"><g transform="translate(10 308.5130915554617) rotate(0 74.60401012070199 0)"><path d="M0 0 C24.87 0, 124.34 0, 149.21 0 M0 0 C24.87 0, 124.34 0, 149.21 0" stroke="#1e1e1e" stroke-width="2" fill="none"/></g></g><mask/><g stroke-linecap="round"><g transform="translate(137.6675746024057 346.50286218244565) rotate(0 21.933404196790462 -37.98977045178549)"><path d="M0 0 C9.01 -15.61, 18.03 -31.23, 43.87 -75.98 M0 0 C16.21 -28.07, 32.41 -56.14, 43.87 -75.98" stroke="#1e1e1e" stroke-width="2" fill="none"/></g></g><mask/><g stroke-linecap="round"><g transform="translate(215.82785165020437 346.5028623629917) rotate(0 21.933404196790462 -37.98977045178549)"><path d="M0 0 C16.72 -28.96, 33.44 -57.92, 43.87 -75.98 M0 0 C9.79 -16.95, 19.57 -33.9, 43.87 -75.98" stroke="#1e1e1e" stroke-width="2" fill="none"/></g></g><mask/><g stroke-linecap="round"><g transform="translate(137.66757518085547 346.50286221373136) rotate(0 39.080138404285265 0)"><path d="M0 0 C22.44 0, 44.88 0, 78.16 0 M0 0 C18.13 0, 36.26 0, 78.16 0" stroke="#1e1e1e" stroke-width="2" fill="none"/></g></g><mask/><g stroke-linecap="round"><g transform="translate(181.53438324393835 270.52332161285136) rotate(0 39.080138404285265 0)"><path d="M0 0 C16.04 0, 32.08 0, 78.16 0 M0 0 C17.22 0, 34.43 0, 78.16 0" stroke="#1e1e1e" stroke-width="2" fill="none"/></g></g><mask/><g stroke-linecap="round"><g transform="translate(237.63712196826157 308.51309180474726) rotate(0 74.60401012070199 0)"><path d="M0 0 C24.87 0, 124.34 0, 149.21 0 M0 0 C24.87 0, 124.34 0, 149.21 0" stroke="#1e1e1e" stroke-width="2" fill="none"/></g></g><mask/><g stroke-linecap="round"><g transform="translate(406.5620907859397 13.726614362809102) rotate(355.8487147554115 -53.41544469854924 53.415444698549216)"><path d="M0 0 C-29.74 29.74, -59.47 59.47, -106.83 106.83 M0 0 C-38.52 38.52, -77.03 77.03, -106.83 106.83" stroke="#1e1e1e" stroke-width="2" fill="none"/></g><g transform="translate(406.5620907859397 13.726614362809102) rotate(355.8487147554115 -53.41544469854924 53.415444698549216)"><path d="M-96.27 84.17 C-99.21 90.48, -102.15 96.79, -106.83 106.83 M-96.27 84.17 C-100.07 92.34, -103.88 100.51, -106.83 106.83" stroke="#1e1e1e" stroke-width="2" fill="none"/></g><g transform="translate(406.5620907859397 13.726614362809102) rotate(355.8487147554115 -53.41544469854924 53.415444698549216)"><path d="M-84.17 96.27 C-90.48 99.21, -96.79 102.15, -106.83 106.83 M-84.17 96.27 C-92.34 100.07, -100.51 103.88, -106.83 106.83" stroke="#1e1e1e" stroke-width="2" fill="none"/></g></g><mask/><g stroke-linecap="round"><g transform="translate(434.50808007340015 65.25423079297927) rotate(355.8487147554115 -53.41544469854924 53.41544469854922)"><path d="M0 0 C-35.69 35.69, -71.38 71.38, -106.83 106.83 M0 0 C-37.55 37.55, -75.09 75.09, -106.83 106.83" stroke="#1e1e1e" stroke-width="2" fill="none"/></g><g transform="translate(434.50808007340015 65.25423079297927) rotate(355.8487147554115 -53.41544469854924 53.41544469854922)"><path d="M-96.27 84.17 C-99.79 91.74, -103.32 99.31, -106.83 106.83 M-96.27 84.17 C-99.98 92.14, -103.69 100.1, -106.83 106.83" stroke="#1e1e1e" stroke-width="2" fill="none"/></g><g transform="translate(434.50808007340015 65.25423079297927) rotate(355.8487147554115 -53.41544469854924 53.41544469854922)"><path d="M-84.17 96.27 C-91.74 99.79, -99.31 103.32, -106.83 106.83 M-84.17 96.27 C-92.14 99.98, -100.1 103.69, -106.83 106.83" stroke="#1e1e1e" stroke-width="2" fill="none"/></g></g><mask/><g stroke-linecap="round"><g transform="translate(467.57090555544033 116.4104645845275) rotate(355.8487147554115 -53.41544469854924 53.41544469854921)"><path d="M0 0 C-35.31 35.31, -70.63 70.63, -106.83 106.83 M0 0 C-37.4 37.4, -74.81 74.81, -106.83 106.83" stroke="#1e1e1e" stroke-width="2" fill="none"/></g><g transform="translate(467.57090555544033 116.4104645845275) rotate(355.8487147554115 -53.41544469854924 53.41544469854921)"><path d="M-96.27 84.17 C-99.76 91.66, -103.25 99.15, -106.83 106.83 M-96.27 84.17 C-99.96 92.11, -103.66 100.04, -106.83 106.83" stroke="#1e1e1e" stroke-width="2" fill="none"/></g><g transform="translate(467.57090555544033 116.4104645845275) rotate(355.8487147554115 -53.41544469854924 53.41544469854921)"><path d="M-84.17 96.27 C-91.66 99.76, -99.15 103.25, -106.83 106.83 M-84.17 96.27 C-92.11 99.96, -100.04 103.66, -106.83 106.83" stroke="#1e1e1e" stroke-width="2" fill="none"/></g></g><mask/></svg>