<?xml version="1.0" encoding="utf-8" ?>
<svg baseProfile="tiny" height="100%" version="1.2" width="100%" xmlns="http://www.w3.org/2000/svg" xmlns:ev="http://www.w3.org/2001/xml-events" xmlns:xlink="http://www.w3.org/1999/xlink"><defs /><line stroke="rgb(0%,0%,0%)" x1="50" x2="350" y1="150" y2="150" /><line stroke="rgb(0%,0%,0%)" x1="50" x2="50" y1="50" y2="250" /><text fill="black" x="350" y="160">t</text><text fill="black" x="60" y="50">i</text><polyline fill="none" points="50.0,150.0 50.3003,137.3753 50.6006,124.7935 50.9009,112.4574 51.2012,100.568 51.5015,89.3218 51.8018,78.9074 52.1021,69.5022 52.4024,61.2695 52.7027,54.3556 53.003,48.8872 53.3033,44.9694 53.6036,42.6834 53.9039,42.0847 54.2042,43.2027 54.5045,46.039 54.8048,50.5677 55.1051,56.7352 55.4054,64.4607 55.7057,73.6377 56.006,84.1346 56.3063,95.7973 56.6066,108.4512 56.9069,121.9038 57.2072,135.9475 57.5075,150.3631 57.8078,164.923 58.1081,179.395 58.4084,193.5458 58.7087,207.145 59.009,219.9688 59.3093,231.8036 59.6096,242.4496 59.9099,251.7245 60.2102,259.4661 60.5105,265.5355 60.8108,269.8196 61.1111,272.2328 61.4114,272.7192 61.7117,271.2533 62.012,267.8409 62.3123,262.5194 62.6126,255.3573 62.9129,246.4534 63.2132,235.9353 63.5135,223.9582 63.8138,210.7017 64.1141,196.3678 64.4144,181.1775 64.7147,165.3674 65.015,149.1861 65.3153,132.89 65.6156,116.7397 65.9159,100.995 66.2162,85.9115 66.5165,71.736 66.8168,58.7024 67.1171,47.0279 67.4174,36.9094 67.7177,28.5201 68.018,22.0066 68.3183,17.486 68.6186,15.0444 68.9189,14.7347 69.2192,16.5759 69.5195,20.5524 69.8198,26.614 70.1201,34.6768 70.4204,44.6239 70.7207,56.3073 71.021,69.5503 71.3213,84.1499 71.6216,99.8801 71.9219,116.4954 72.2222,133.7347 72.5225,151.3253 72.8228,168.9875 73.1231,186.4391 73.4234,203.3995 73.7237,219.5949 74.024,234.7623 74.3243,248.6542 74.6246,261.0422 74.9249,271.7213 75.2252,280.513 75.5255,287.2684 75.8258,291.8708 76.1261,294.2376 76.4264,294.3219 76.7267,292.1134 77.027,287.6386 77.3273,280.9607 77.6276,272.1784 77.9279,261.4248 78.2282,248.8652 78.5285,234.6943 78.8288,219.1336 79.1291,202.4275 79.4294,184.8397 79.7297,166.6488 80.03,148.1437 80.3303,129.6196 80.6306,111.3723 80.9309,93.6941 81.2312,76.8688 81.5315,61.1674 81.8318,46.8429 82.1321,34.1271 82.4324,23.2262 82.7327,14.3178 83.033,7.5475 83.3333,3.0269 83.6336,0.8317 83.9339,1.0001 84.2342,3.5326 84.5345,8.3916 84.8348,15.5019 85.1351,24.7524 85.4354,35.9971 85.7357,49.0581 86.036,63.7281 86.3363,79.7737 86.6366,96.9396 86.9369,114.952 87.2372,133.5238 87.5375,152.3585 87.8378,171.1555 88.1381,189.6149 88.4384,207.4422 88.7387,224.353 89.039,240.0779 89.3393,254.3666 89.6396,266.9918 89.9399,277.7535 90.2402,286.4812 90.5405,293.0378 90.8408,297.3207 91.1411,299.2643 91.4414,298.8403 91.7417,296.0586 92.042,290.9671 92.3423,283.6504 92.6426,274.2289 92.9429,262.8565 93.2432,249.7182 93.5435,235.0268 93.8438,219.0199 94.1441,201.9555 94.4444,184.108 94.7447,165.7638 95.045,147.2166 95.3453,128.7626 95.6456,110.6957 95.9459,93.3027 96.2462,76.8589 96.5465,61.6236 96.8468,47.8357 97.1471,35.7105 97.4474,25.4355 97.7477,17.1681 98.048,11.0331 98.3483,7.1204 98.6486,5.484 98.9489,6.1414 99.2492,9.0729 99.5495,14.2226 99.8498,21.4993 100.1502,30.778 100.4505,41.9022 100.7508,54.6863 101.0511,68.9193 101.3514,84.3676 101.6517,100.7795 101.952,117.8887 102.2523,135.4193 102.5526,153.0901 102.8529,170.6189 103.1532,187.7273 103.4535,204.1453 103.7538,219.6152 104.0541,233.896 104.3544,246.7671 104.6547,258.0319 104.955,267.5206 105.2553,275.0928 105.5556,280.6398 105.8559,284.0858 106.1562,285.3894 106.4565,284.5436 106.7568,281.5759 107.0571,276.5478 107.3574,269.5532 107.6577,260.7168 107.958,250.1921 108.2583,238.1585 108.5586,224.8183 108.8589,210.3933 109.1592,195.121 109.4595,179.2507 109.7598,163.0394 110.0601,146.7477 110.3604,130.6354 110.6607,114.9574 110.961,99.9595 111.2613,85.8749 111.5616,72.9202 111.8619,61.2919 112.1622,51.1639 112.4625,42.6845 112.7628,35.9744 113.0631,31.125 113.3634,28.197 113.6637,27.2198 113.964,28.1915 114.2643,31.0789 114.5646,35.8184 114.8649,42.3176 115.1652,50.4564 115.4655,60.0902 115.7658,71.0512 116.0661,83.1526 116.3664,96.1907 116.6667,109.9491 116.967,124.202 117.2673,138.7178 117.5676,153.2633 117.8679,167.607 118.1682,181.5231 118.4685,194.7949 118.7688,207.2184 119.0691,218.6053 119.3694,228.7858 119.6697,237.6113 119.97,244.9564 120.2703,250.7207 120.5706,254.8302 120.8709,257.2383 121.1712,257.9259 121.4715,256.9016 121.7718,254.2013 122.0721,249.8873 122.3724,244.0469 122.6727,236.7906 122.973,228.2503 123.2733,218.5769 123.5736,207.9374 123.8739,196.5124 124.1742,184.4927 124.4745,172.0761 124.7748,159.4647 125.0751,146.8607 125.3754,134.4641 125.6757,122.4689 125.976,111.06 126.2763,100.4111 126.5766,90.6812 126.8769,82.0127 127.1772,74.5292 127.4775,68.334 127.7778,63.5083 128.0781,60.1106 128.3784,58.1759 128.6787,57.7154 128.979,58.7165 129.2793,61.144 129.5796,64.94 129.8799,70.0261 130.1802,76.304 130.4805,83.6582 130.7808,91.9575 131.0811,101.0576 131.3814,110.8035 131.6817,121.032 131.982,131.5747 132.2823,142.2605 132.5826,152.9185 132.8829,163.3806 133.1832,173.4843 133.4835,183.0751 133.7838,192.0088 134.0841,200.1536 134.3844,207.3922 134.6847,213.6234 134.985,218.7632 135.2853,222.7463 135.5856,225.5265 135.8859,227.0773 136.1862,227.392 136.4865,226.4835 136.7868,224.3838 137.0871,221.1434 137.3874,216.8297 137.6877,211.5262 137.988,205.3309 138.2883,198.354 138.5886,190.7168 138.8889,182.549 139.1892,173.9865 139.4895,165.1697 139.7898,156.2409 140.0901,147.3418 140.3904,138.6117 140.6907,130.1853 140.991,122.1904 141.2913,114.7462 141.5916,107.9615 141.8919,101.9333 142.1922,96.7451 142.4925,92.4665 142.7928,89.1514 143.0931,86.8382 143.3934,85.5491 143.6937,85.2899 143.994,86.0503 144.2943,87.8044 144.5946,90.5112 144.8949,94.1154 145.1952,98.5486 145.4955,103.7304 145.7958,109.5701 146.0961,115.9679 146.3964,122.8169 146.6967,130.0045 146.997,137.4144 147.2973,144.9286 147.5976,152.4289 147.8979,159.7989 148.1982,166.9258 148.4985,173.7019 148.7988,180.0262 149.0991,185.8062 149.3994,190.9587 149.6997,195.4111 150.0,199.1025 150.3003,201.9845 150.6006,204.0214 150.9009,205.191 151.2012,205.4846 151.5015,204.9069 151.8018,203.476 152.1021,201.2225 152.4024,198.1896 152.7027,194.4316 153.003,190.0134 153.3033,185.0092 153.6036,179.5015 153.9039,173.5795 154.2042,167.338 154.5045,160.8758 154.8048,154.2939 155.1051,147.6947 155.4054,141.1796 155.7057,134.8481 156.006,128.7963 156.3063,123.1152 156.6066,117.8895 156.9069,113.1966 157.2072,109.1054 157.5075,105.6752 157.8078,102.9551 158.1081,100.9831 158.4084,99.7859 158.7087,99.3784 159.009,99.7635 159.3093,100.9322 159.6096,102.8639 159.9099,105.5264 160.2102,108.8768 160.5105,112.862 160.8108,117.4194 161.1111,122.4781 161.4114,127.9597 161.7117,133.7797 162.012,139.8485 162.3123,146.073 162.6126,152.3577 162.9129,158.6063 163.2132,164.7229 163.5135,170.6136 163.8138,176.188 164.1141,181.36 164.4144,186.0497 164.7147,190.1841 165.015,193.6986 165.3153,196.5375 165.6156,198.6553 165.9159,200.0172 166.2162,200.5995 166.5165,200.3903 166.8168,199.3896 167.1171,197.6093 167.4174,195.0731 167.7177,191.8162 168.018,187.8851 168.3183,183.3365 168.6186,178.2371 168.9189,172.6622 169.2192,166.6947 169.5195,160.4243 169.8198,153.9459 170.1201,147.3583 170.4204,140.7625 170.7207,134.2608 171.021,127.9547 171.3213,121.9438 171.6216,116.3239 171.9219,111.1858 172.2222,106.6138 172.5225,102.6843 172.8228,99.4645 173.1231,97.0118 173.4234,95.3718 173.7237,94.5786 174.024,94.6535 174.3243,95.6043 174.6246,97.426 174.9249,100.0995 175.2252,103.5926 175.5255,107.86 175.8258,112.8438 176.1261,118.4743 176.4264,124.6709 176.7267,131.3432 177.027,138.3923 177.3273,145.7119 177.6276,153.1904 177.9279,160.7122 178.2282,168.1593 178.5285,175.4135 178.8288,182.3578 179.1291,188.8787 179.4294,194.8676 179.7297,200.2228 180.03,204.8511 180.3303,208.6694 180.6306,211.6063 180.9309,213.603 181.2312,214.6149 181.5315,214.6122 181.8318,213.5806 182.1321,211.522 182.4324,208.4544 182.7327,204.4122 183.033,199.4455 183.3333,193.62 183.6336,187.0158 183.9339,179.7267 184.2342,171.8587 184.5345,163.5285 184.8348,154.862 185.1351,145.9922 185.4354,137.0576 185.7357,128.1994 186.036,119.5601 186.3363,111.2806 186.6366,103.4983 186.9369,96.3446 187.2372,89.9431 187.5375,84.407 187.8378,79.8374 188.1381,76.3217 188.4384,73.9314 188.7387,72.7214 189.039,72.7283 189.3393,73.9699 189.6396,76.4445 189.9399,80.1304 190.2402,84.9865 190.5405,90.952 190.8408,97.9476 191.1411,105.8762 191.4414,114.6245 191.7417,124.0641 192.042,134.0537 192.3423,144.4412 192.6426,155.0658 192.9429,165.7606 193.2432,176.3552 193.5435,186.6782 193.8438,196.5602 194.1441,205.8367 194.4444,214.3502 194.7447,221.9535 195.045,228.512 195.3453,233.9059 195.6456,238.0326 195.9459,240.8084 196.2462,242.1704 196.5465,242.0773 196.8468,240.511 197.1471,237.4768 197.4474,233.0035 197.7477,227.1439 198.048,219.9737 198.3483,211.5906 198.6486,202.1134 198.9489,191.6799 199.2492,180.4453 199.5495,168.5797 199.8498,156.2656 200.1502,143.6949 200.4505,131.0664 200.7508,118.5821 201.0511,106.4444 201.3514,94.8525 201.6517,83.9992 201.952,74.0681 202.2523,65.2297 202.5526,57.6393 202.8529,51.4336 203.1532,46.7289 203.4535,43.6183 203.7538,42.1706 204.0541,42.4284 204.3544,44.407 204.6547,48.0945 204.955,53.451 205.2553,60.4093 205.5556,68.8754 205.8559,78.7303 206.1562,89.8307 206.4565,102.012 206.7568,115.0904 207.0571,128.8652 207.3574,143.1229 207.6577,157.6395 207.958,172.1846 208.2583,186.5251 208.5586,200.4286 208.8589,213.6675 209.1592,226.0226 209.4595,237.287 209.7598,247.2691 210.0601,255.7962 210.3604,262.7175 210.6607,267.9067 210.961,271.2643 211.2613,272.7192 211.5616,272.2306 211.8619,269.7888 212.1622,265.4152 212.4625,259.163 212.7628,251.1157 213.0631,241.387 213.3634,230.1185 213.6637,217.4777 213.964,203.656 214.2643,188.8652 214.5646,173.3346 214.8649,157.3072 215.1652,141.0361 215.4655,124.7803 215.7658,108.8005 216.0661,93.3549 216.3664,78.6953 216.6667,65.0624 216.967,52.6824 217.2673,41.7627 217.5676,32.4888 217.8679,25.0208 218.1682,19.491 218.4685,16.0012 218.7688,14.6211 219.0691,15.3866 219.3694,18.2996 219.6697,23.327 219.97,30.4019 220.2703,39.4234 220.5706,50.259 220.8709,62.746 221.1712,76.6942 221.4715,91.8886 221.7718,108.0931 222.0721,125.0539 222.3724,142.5034 222.6727,160.1651 222.973,177.7573 223.2733,194.998 223.5736,211.6095 223.8739,227.323 224.1742,241.8825 224.4745,255.0496 224.7748,266.6072 225.0751,276.3631 225.3754,284.1533 225.6757,289.8447 225.976,293.3374 226.2763,294.5665 226.5766,293.5034 226.8769,290.1562 227.1772,284.5697 227.4775,276.825 227.7778,267.0384 228.0781,255.3593 228.3784,241.9679 228.6787,227.0729 228.979,210.9077 229.2793,193.7267 229.5796,175.8018 229.8799,157.4172 230.1802,138.8655 230.4805,120.4429 230.7808,102.444 231.0811,85.1576 231.3814,68.8613 231.6817,53.818 231.982,40.2704 232.2823,28.438 232.5826,18.5131 232.8829,10.6576 233.1832,5.0004 233.4835,1.6353 233.7838,0.6195 234.0841,1.9723 234.3844,5.6751 234.6847,11.6715 234.985,19.868 235.2853,30.1359 235.5856,42.3129 235.8859,56.206 236.1862,71.5944 236.4865,88.2334 236.7868,105.8577 237.0871,124.1864 237.3874,142.927 237.6877,161.7805 237.988,180.446 238.2883,198.6256 238.5886,216.0294 238.8889,232.3799 239.1892,247.4166 239.4895,260.9003 239.7898,272.617 240.0901,282.381 240.3904,290.0382 240.6907,295.4684 240.991,298.5876 241.2913,299.3485 241.5916,297.742 241.8919,293.7972 242.1922,287.5802 242.4925,279.1939 242.7928,268.7757 243.0931,256.4954 243.3934,242.5523 243.6937,227.1721 243.994,210.603 244.2943,193.1119 244.5946,174.9797 244.8949,156.4971 245.1952,137.9595 245.4955,119.6626 245.7958,101.8974 246.0961,84.9455 246.3964,69.0747 246.6967,54.5347 246.997,41.5529 247.2973,30.3311 247.5976,21.0422 247.8979,13.8276 248.1982,8.7947 248.4985,6.0157 248.7988,5.5264 249.0991,7.3255 249.3994,11.3753 249.6997,17.6021 250.0,25.8975 250.3003,36.1203 250.6006,48.0994 250.9009,61.6358 251.2012,76.5069 251.5015,92.4695 251.8018,109.2639 252.1021,126.6188 252.4024,144.2548 252.7027,161.8898 253.003,179.2428 253.3033,196.0391 253.6036,212.0142 253.9039,226.9185 254.2042,240.5206 254.5045,252.6116 254.8048,263.0078 255.1051,271.5538 255.4054,278.125 255.7057,282.6288 256.006,285.0066 256.3063,285.2342 256.6066,283.3219 256.9069,279.3143 257.2072,273.2892 257.5075,265.3562 257.8078,255.6548 258.1081,244.3517 258.4084,231.6383 258.7087,217.7269 259.009,202.8477 259.3093,187.2446 259.6096,171.1714 259.9099,154.8873 260.2102,138.6531 260.5105,122.7265 260.8108,107.3585 261.1111,92.7891 261.4114,79.2435 261.7117,66.9288 262.012,56.0304 262.3123,46.7099 262.6126,39.1019 262.9129,33.3126 263.2132,29.4183 263.5135,27.464 263.8138,27.4634 264.1141,29.399 264.4144,33.2223 264.7147,38.8549 265.015,46.1905 265.3153,55.0964 265.6156,65.416 265.9159,76.9717 266.2162,89.5678 266.5165,102.9938 266.8168,117.0281 267.1171,131.4416 267.4174,146.0014 267.7177,160.4747 268.018,174.6323 268.3183,188.2526 268.6186,201.1249 268.9189,213.0525 269.2192,223.8562 269.5195,233.3764 269.8198,241.4758 270.1201,248.0414 270.4204,252.9859 270.7207,256.2488 271.021,257.7973 271.3213,257.6261 271.6216,255.7577 271.9219,252.2412 272.2222,247.1515 272.5225,240.5879 272.8228,232.6719 273.1231,223.5451 273.4234,213.3669 273.7237,202.3114 274.024,190.5646 274.3243,178.3214 274.6246,165.7821 274.9249,153.1492 275.2252,140.6242 275.5255,128.4045 275.8258,116.68 276.1261,105.6303 276.4264,95.422 276.7267,86.2061 277.027,78.1158 277.3273,71.2649 277.6276,65.7457 277.9279,61.6282 278.2282,58.9592 278.5285,57.7616 278.8288,58.0349 279.1291,59.7551 279.4294,62.8754 279.7297,67.3275 280.03,73.0229 280.3303,79.8544 280.6306,87.6984 280.9309,96.4169 281.2312,105.8598 281.5315,115.8678 281.8318,126.2747 282.1321,136.9104 282.4324,147.6035 282.7327,158.1843 283.033,168.4871 283.3333,178.3531 283.6336,187.6326 283.9339,196.1875 284.2342,203.8929 284.5345,210.6394 284.8348,216.3343 285.1351,220.9027 285.4354,224.2889 285.7357,226.4565 286.036,227.3888 286.3363,227.0891 286.6366,225.5798 286.9369,222.9024 287.2372,219.1158 287.5375,214.2959 287.8378,208.5334 288.1381,201.9328 288.4384,194.6101 288.7387,186.6909 289.039,178.3083 289.3393,169.601 289.6396,160.7104 289.9399,151.7788 290.2402,142.9471 290.5405,134.3524 290.8408,126.1263 291.1411,118.3924 291.4414,111.2651 291.7417,104.8473 292.042,99.2295 292.3423,94.4884 292.6426,90.6857 292.9429,87.8678 293.2432,86.0649 293.5435,85.291 293.8438,85.5439 294.1441,86.8054 294.4444,89.0419 294.7447,92.2051 295.045,96.2331 295.3453,101.0513 295.6456,106.5741 295.9459,112.7058 296.2462,119.3429 296.5465,126.3756 296.8468,133.689 297.1471,141.1659 297.4474,148.6878 297.7477,156.1373 298.048,163.3996 298.3483,170.3642 298.6486,176.9265 298.9489,182.9897 299.2492,188.4657 299.5495,193.2765 299.8498,197.3553 300.1502,200.6472 300.4505,203.1103 300.7508,204.7154 301.0511,205.4473 301.3514,205.3038 301.6517,204.2965 301.952,202.4497 302.2523,199.8004 302.5526,196.3974 302.8529,192.3006 303.1532,187.5796 303.4535,182.3128 303.7538,176.5864 304.0541,170.4926 304.3544,164.1282 304.6547,157.5934 304.955,150.9901 305.2553,144.4203 305.5556,137.9848 305.8559,131.7814 306.1562,125.9039 306.4565,120.4404 306.7568,115.4719 307.0571,111.0719 307.3574,107.3044 307.6577,104.2237 307.958,101.8736 308.2583,100.2864 308.5586,99.483 308.8589,99.4721 309.1592,100.2509 309.4595,101.8044 309.7598,104.1062 310.0601,107.1187 310.3604,110.7937 310.6607,115.0734 310.961,119.8908 311.2613,125.1712 311.5616,130.8329 311.8619,136.7887 312.1622,142.9472 312.4625,149.2138 312.7628,155.4925 313.0631,161.687 313.3634,167.7022 313.6637,173.4458 313.964,178.8294 314.2643,183.7699 314.5646,188.1906 314.8649,192.0225 315.1652,195.2056 315.4655,197.689 315.7658,199.4325 316.0661,200.4068 316.3664,200.5941 316.6667,199.9885 316.967,198.5957 317.2673,196.4337 317.5676,193.5321 317.8679,189.9316 318.1682,185.684 318.4685,180.8512 318.7688,175.5041 319.0691,169.722 319.3694,163.5916 319.6697,157.205 319.97,150.6595 320.2703,144.055 320.5706,137.4935 320.8709,131.077 321.1712,124.9063 321.4715,119.0792 321.7718,113.6892 322.0721,108.8241 322.3724,104.5643 322.6727,100.9819 322.973,98.1391 323.2733,96.0878 323.5736,94.8678 323.8739,94.5067 324.1742,95.0194 324.4745,96.4072 324.7748,98.6579 325.0751,101.7461 325.3754,105.6328 325.6757,110.2664 325.976,115.583 326.2763,121.5073 326.5766,127.9536 326.8769,134.8272 327.1772,142.0251 327.4775,149.4385 327.7778,156.9533 328.0781,164.4525 328.3784,171.8179 328.6787,178.9316 328.979,185.6781 329.2793,191.9462 329.5796,197.6305 329.8799,202.6333 330.1802,206.8663 330.4805,210.252 330.7808,212.7253 331.0811,214.2343 331.3814,214.7416 331.6817,214.2252 331.982,212.6789 332.2823,210.1125 332.5826,206.5523 332.8829,202.0406 333.1832,196.6354 333.4835,190.4097 333.7838,183.4505 334.0841,175.858 334.3844,167.7437 334.6847,159.2291 334.985,150.4439 335.2853,141.5242 335.5856,132.61 335.8859,123.8435 336.1862,115.3667 336.4865,107.3189 336.7868,99.8349 337.0871,93.0425 337.3874,87.0602 337.6877,81.9956 337.988,77.943 338.2883,74.982 338.5886,73.1761 338.8889,72.5712 339.1892,73.1944 339.4895,75.054 339.7898,78.1381 340.0901,82.4155 340.3904,87.8351 340.6907,94.3267 340.991,101.802 341.2913,110.1556 341.5916,119.2664 341.8919,128.9994 342.1922,139.2076 342.4925,149.7342 342.7928,160.415 343.0931,171.0811 343.3934,181.5613 343.6937,191.6847 343.994,201.2842 344.2943,210.1983 344.5946,218.2743 344.8949,225.3712 345.1952,231.3613 345.4955,236.1333 345.7958,239.5938 346.0961,241.6693 346.3964,242.3074 346.6967,241.4786 346.997,239.1761 347.2973,235.4173 347.5976,230.2428 347.8979,223.7171 348.1982,215.9268 348.4985,206.9806 348.7988,197.0069 349.0991,186.1524 349.3994,174.5803 349.6997,162.4669 350.0,150.0" stroke="rgb(0%,0%,0%)" /></svg>