<svg version="1.1" xmlns="http://www.w3.org/2000/svg" xmlns:xlink="http://www.w3.org/1999/xlink" width="1560" height="804"><defs/><g><path fill="none" stroke="#02063B" paint-order="fill stroke markers" d=" M 44 632.8062645273403 L 45 630.8541932563759 L 46 628.5360040958253 L 47 625.8554056538248 L 48 622.8166863160513 L 49 619.4247073852196 L 50 615.6848953040352 L 51 611.6032329740442 L 52 607.1862501842663 L 53 602.4410131649258 L 54 597.3751132829905 L 55 591.9966548976037 L 56 586.3142423948386 L 57 580.3369664225166 L 58 574.0743893471091 L 59 567.5365299559915 L 60 560.7338474295204 L 61 553.6772246085771 L 62 546.3779505843422 L 63 538.8477026381593 L 64 531.0985275603748 L 65 523.1428223780441 L 66 514.9933145223323 L 67 506.6630414673397 L 68 498.1653298729241 L 69 489.51377426488807 L 70 480.7222152866377 L 71 471.8047175571056 L 72 462.77554717036105 L 73 453.64914887290246 L 74 444.4401229551447 L 75 435.1632018940688 L 76 425.83322678440146 L 77 416.46512359602957 L 78 407.07387929563254 L 79 397.67451787073236 L 80 388.2820762945187 L 81 378.9115804698995 L 82 369.5780211912617 L 83 360.29633016239785 L 84 351.0813561089658 L 85 341.94784102369465 L 86 332.9103965823416 L 87 323.9834807681275 L 88 315.18137474204786 L 89 306.5181599960621 L 90 298.0076958257097 L 91 289.6635971581944 L 92 281.4992127714049 L 93 273.5276039387175 L 94 265.76152353374545 L 95 258.21339562846106 L 96 250.8952956173314 L 97 243.818930899263 L 98 236.99562214826074 L 99 230.43628520276462 L 100 224.15141360263686 L 101 218.1510618017366 L 102 212.44482908293847 L 103 207.04184420132785 L 104 201.95075078014 L 105 197.17969348280678 L 106 192.7363049832327 L 107 188.62769375514472 L 108 184.86043270005084 L 109 181.44054863199966 L 110 178.37351263596372 L 111 175.66423131527057 L 112 173.31703894208414 L 113 171.3356905234939 L 114 169.72335579430433 L 115 168.48261414613586 L 116 167.61545050094807 L 117 167.12325213558825 L 118 167.00680646244425 L 119 167.26629976975266 L 120 167.90131692357744 L 121 168.91084203193554 L 122 170.29326007000748 L 123 172.04635946383246 L 124 174.16733562835495 L 125 176.65279545416246 L 126 179.4987627357369 L 127 182.70068453253506 L 128 186.25343845272226 L 129 190.15134084790662 L 130 194.38815590576402 L 131 198.95710562600752 L 132 203.8508806637421 L 133 209.06165202285695 L 134 214.5810835807495 L 135 220.40034542434302 L 136 226.51012797606413 L 137 232.90065688718073 L 138 239.56170867467515 L 139 246.48262707663616 L 140 253.6523401000044 L 141 261.05937773339974 L 142 268.69189029669235 L 143 276.5376673979636 L 144 284.5841574675279 L 145 292.818487837767 L 146 301.22748533665197 L 147 309.7976973620083 L 148 318.51541340281 L 149 327.3666869730718 L 150 336.3373579232524 L 151 345.41307509347257 L 152 354.5793192723097 L 153 363.82142642443876 L 154 373.12461114996074 L 155 382.4739903378883 L 156 391.85460697594874 L 157 401.2514540786126 L 158 410.6494986950693 L 159 420.03370595874196 L 160 429.389063139866 L 161 438.70060366265477 L 162 447.9534310486279 L 163 457.1327427477988 L 164 466.22385381959793 L 165 475.2122204256438 L 166 484.0834630967827 L 167 492.8233897371716 L 168 501.41801832860426 L 169 509.8535992987572 L 170 518.1166375175729 L 171 526.1939138865887 L 172 534.0725064866746 L 173 541.7398112503472 L 174 549.1835621255891 L 175 556.3918506989154 L 176 563.3531452462951 L 177 570.056309181449 L 178 576.4906188720134 L 179 582.6457807950626 L 180 588.511948004551 L 181 594.0797358843256 L 182 599.3402371615102 L 183 604.2850361562419 L 184 608.9062222449631 L 185 613.1964025157323 L 186 617.148713595306 L 187 620.7568326290717 L 188 624.0149873962662 L 189 626.917965544298 L 190 629.4611229273993 L 191 631.6403910362684 L 192 633.4522835068168 L 193 634.893901697608 L 194 635.9629393270659 L 195 636.6576861630322 L 196 636.9770307587742 L 197 636.920462231062 L 198 636.4880710774725 L 199 635.680549031613 L 200 634.4991879564948 L 201 632.9458777778276 L 202 631.0231034605422 L 203 628.7339410333765 L 204 626.0820526678849 L 205 623.0716808197467 L 206 619.7076414417401 L 207 615.9953162792467 L 208 611.9406442606057 L 209 607.5501119960968 L 210 602.8307434007459 L 211 597.7900884575611 L 212 592.4362111391683 L 213 586.7776765071784 L 214 580.823537009912 L 215 574.5833180004166 L 216 568.0670024979313 L 217 561.2850152171874 L 218 554.2482058910866 L 219 546.9678319134455 L 220 539.455540329564 L 221 531.7233492034402 L 222 523.7836283914291 L 223 515.6490797531139 L 224 507.33271683103743 L 225 498.84784403181277 L 226 490.2080353419087 L 227 481.4271126121679 L 228 472.519123445795 L 229 463.4983187251857 L 230 454.37912981355817 L 231 445.176145467847 L 232 435.9040884998075 L 233 426.5777922226543 L 234 417.21217672092797 L 235 407.8222249815391 L 236 398.42295892418855 L 237 389.0294153694975 L 238 379.6566219833052 L 239 370.3195732356061 L 240 361.0332064125998 L 241 351.81237772021643 L 242 342.67183851735933 L 243 333.62621171687465 L 244 324.68996839201316 L 245 315.8774046257968 L 246 307.20261864033915 L 247 298.67948824269376 L 248 290.3216486233267 L 249 282.1424705427177 L 250 274.1550389409981 L 251 266.37213200483575 L 252 258.8062007250632 L 253 251.46934897774955 L 254 244.37331416057833 L 255 237.52944841551755 L 256 230.9487004678119 L 257 224.64159811036026 L 258 218.6182313614906 L 259 212.88823632308524 L 260 207.46077976487138 L 261 202.34454445954702 L 262 197.54771529219488 L 263 193.0779661662142 L 264 188.9424477267105 L 265 185.14777592099043 L 266 181.70002141445607 L 267 178.6046998788364 L 268 175.86676316828814 L 269 173.49059139748636 L 270 171.4799859343745 L 271 169.83816331878745 L 272 168.5677501166732 L 273 167.6707787181482 L 274 167.14868408610636 L 275 167.00230146058468 L 276 167.2318650225574 L 277 167.8370075192963 L 278 168.81676085189673 L 279 170.16955762402955 L 280 171.89323364944042 L 281 173.9850314141868 L 282 176.44160448807136 L 283 179.25902287821702 L 284 182.4327793162165 L 285 185.9577964688012 L 286 189.82843506049028 L 287 194.0385028952295 L 288 198.58126476258286 L 289 203.44945321263384 L 290 208.63528018235343 L 291 214.13044945484123 L 292 219.92616993150108 L 293 226.01316969592523 L 294 232.38171084698075 L 295 239.02160507737625 L 296 245.92222997277764 L 297 253.07254600540776 L 298 260.4611141949331 L 299 268.0761144083949 L 300 275.9053642698978 L 301 283.93633864981445 L 302 292.15618970232066 L 303 300.5517674192063 L 304 309.1096406670862 L 305 317.81611867434526 L 306 326.6572729334555 L 307 335.61895948361393 L 308 344.6868415380656 L 309 353.8464124199009 L 310 363.0830187696473 L 311 372.38188398751527 L 312 381.7281318728092 L 313 391.10681042267163 L 314 400.5029157521017 L 315 409.9014160969671 L 316 419.2872758616233 L 317 428.645479672656 L 318 437.96105640027866 L 319 447.21910310894333 L 320 456.40480889886163 L 321 465.5034786002816 L 322 474.5005562826278 L 323 483.3816485408819 L 324 492.1325475219634 L 325 500.7392536542606 L 326 509.1879980439618 L 327 517.4652645023464 L 328 525.5578111688029 L 329 533.4526916949837 L 330 541.1372759561974 L 331 548.5992702569174 L 332 555.826736998069 L 333 562.8081137746445 L 334 569.5322318730816 L 335 575.9883341388254 L 336 582.1660921854785 L 337 588.0556229180185 L 338 593.6475043436385 L 339 598.9327906449296 L 340 603.9030264912765 L 341 608.5502605655862 L 342 612.8670582846962 L 343 616.8465136931243 L 344 620.4822605111217 L 345 623.7684823193646 L 346 626.6999218639828 L 347 629.2718894670455 L 348 631.4802705290449 L 349 633.321532111378 L 350 634.7927285882945 L 351 635.8915063592699 L 352 636.6161076142641 L 353 636.9653731458425 L 354 636.9387442036605 L 355 636.536263388345 L 356 635.7585745833426 L 357 634.6069219248432 L 358 633.0831478114276 L 359 631.1896899566227 L 360 628.9295774890802 L 361 626.3064261066165 L 362 623.3244322918677 L 363 619.9883665988128 L 364 616.3035660209043 L 365 612.2759254530185 L 366 607.9118882608793 L 367 603.2184359730496 L 368 598.2030771119732 L 369 592.873835181942 L 370 587.2392358331994 L 371 581.3082932227198 L 372 575.0904955934795 L 373 568.5957900952931 L 374 561.8345668714936 L 375 554.8176424369225 L 376 547.5562423738106 L 377 540.0619833732427 L 378 532.3468546509303 L 379 524.423198767022 L 380 516.3036918806429 L 381 508.0013234707417 L 382 499.52937555569724 L 383 490.90140144492045 L 384 482.131204056453 L 385 473.23281383524 L 386 464.22046630741426 L 387 455.10857930648774 L 388 445.9117299078973 L 389 436.6446311087899 L 390 427.32210829036933 L 391 417.95907550044546 L 392 408.57051159414243 L 393 399.1714362709228 L 394 389.7768860462753 L 395 380.40189019649483 L 396 371.0614467150493 L 397 361.7704983189866 L 398 352.54390854377795 L 399 343.3964379648287 L 400 334.34272058370965 L 401 325.3972404168735 L 402 316.5743083243198 L 403 307.88803911527083 L 404 299.3523289674906 L 405 290.98083319636044 L 406 282.7869444092903 L 407 274.7837710804024 L 408 266.9841165797718 L 409 259.4004586907612 L 410 252.04492964823234 L 411 244.92929672955677 L 412 238.0649434294849 L 413 231.46285124897895 L 414 225.1335821271565 L 415 219.08726154443985 L 416 213.33356232394954 L 417 207.88168915704736 L 418 202.7403638777962 L 419 197.9178115098848 L 420 193.42174710834644 L 421 189.25936341711383 L 422 185.4373193621651 L 423 181.96172939866204 L 424 178.83815372912716 L 425 176.07158940830416 L 426 173.6664623489374 L 427 171.62662024125544 L 428 169.9553263974874 L 429 168.65525453125994 L 430 167.72848448022492 L 431 167.17649887876362 L 432 167.00018078608775 L 433 167.1998122735331 L 434 167.77507397330547 L 435 168.7250455894012 L 436 170.0482073698845 L 437 171.74244253816576 L 438 173.80504067939347 L 439 176.23270207653906 L 440 179.02154298924086 L 441 182.1671018669591 L 442 185.66434648650633 L 443 189.50768200253046 L 444 193.69095989807397 L 445 198.2074878208884 L 446 203.05004028977206 L 447 208.21087025379754 L 448 213.68172148594124 L 449 219.45384179128345 L 450 225.5179970086561 L 451 231.86448578332886 L 452 238.48315508710758 L 453 245.3634164610144 L 454 252.49426295456055 L 455 259.86428673452326 L 456 267.4616973350423 L 457 275.2743405198521 L 458 283.2897177264639 L 459 291.49500606120375 L 460 299.8770788131043 L 461 308.42252645384326 L 462 317.11767809012565 L 463 325.94862333420093 L 464 334.9012345575131 L 465 343.96118949189406 L 466 353.1139941421347 L 467 362.3450059732895 L 468 371.63945733560615 L 469 380.9824790896164 L 470 390.35912439358367 L 471 399.75439261526685 L 472 409.1532533297283 L 473 418.540670364809 L 474 427.90162585579327 L 475 437.2211442707938 L 476 446.48431636840445 L 477 455.67632304930703 L 478 464.7824590636697 L 479 473.7881565364067 L 480 482.67900827267545 L 481 491.44079080631167 L 482 500.05948715434306 L 483 508.5213092411683 L 484 516.8127199565417 L 485 524.9204548120587 L 486 532.8315431615089 L 487 540.5333289511406 L 488 548.0134909666513 L 489 555.2600625444986 L 490 562.2614507160118 L 491 569.0064547536649 L 492 575.4842840898557 L 493 581.6845755795096 L 494 587.5974100789017 L 495 593.2133283141698 L 496 598.5233460141362 L 497 603.5189682832247 L 498 608.192203191481 L 499 612.5355745599544 L 500 616.5421339209925 L 501 620.2054716343047 L 502 623.51972714102 L 503 626.4795983393312 L 504 629.0803500667264 L 505 631.3178216752392 L 506 633.1884336875979 L 507 634.6891935236255 L 508 635.8177002877289 L 509 636.5721486098212 L 510 636.9513315335273 L 511 636.9546424470573 L 512 636.5820760536559 L 513 635.834228380076 L 514 634.7122958230628 L 515 633.2180732353747 L 516 631.3539510544019 L 517 629.1229114779754 L 518 626.5285236934878 L 519 623.5749381679543 L 520 620.2668800081515 L 521 616.6096414014534 L 522 612.6090731494614 L 523 608.2715753079693 L 524 603.6040869482408 L 525 598.6140750559732 L 526 593.3095225857151 L 527 587.6989156898414 L 528 581.7912301425193 L 529 575.5959169803866 L 530 569.1228873829059 L 531 562.3824968165936 L 532 555.3855284684822 L 533 548.1431759953227 L 534 540.667025616119 L 535 532.9690375766504 L 536 525.0615270156298 L 537 516.9571442631106 L 538 508.66885460265325 L 539 500.20991752964034 L 540 491.5938655389109 L 541 482.83448247565866 L 542 473.9457814842153 L 543 464.94198259001195 L 544 455.8374899505706 L 545 446.64686881192785 L 546 437.3848222073434 L 547 428.0661674355867 L 548 418.705812356418 L 549 409.3187315411964 L 550 399.9199423167551 L 551 390.52448074088494 L 552 381.1473775478492 L 553 371.80363410241387 L 554 362.5081984008676 L 555 353.2759411574117 L 556 344.12163201419236 L 557 335.0599159130228 L 558 326.1052896666036 L 559 317.27207876670974 L 560 308.5744144664633 L 561 300.0262111733411 L 562 291.64114418909423 L 563 283.43262783217784 L 564 275.4137939777062 L 565 267.5974710492525 L 566 259.99616349611034 L 567 252.62203178883823 L 568 245.48687296510366 L 569 238.6021017569379 L 570 231.97873232960242 L 571 225.62736066127022 L 572 219.55814759172358 L 573 213.7808025671769 L 574 208.30456810723587 L 575 203.1382050188349 L 576 198.28997838081673 L 577 193.76764432156898 L 578 189.57843761087295 L 579 185.7290600858168 L 580 182.22566992928336 L 581 179.07387181817313 L 582 176.27870795711587 L 583 173.84465001202003 L 584 171.77559195635936 L 585 170.07484384164752 L 586 168.74512650206103 L 587 167.7885672016855 L 588 167.20669623134634 L 589 167.0004444604702 L 590 167.1701418478925 L 591 167.71551691399353 L 592 168.63569717500798 L 593 169.9292105388129 L 594 171.59398765996116 L 595 173.62736525019213 L 596 176.0260903391257 L 597 178.7863254783202 L 598 181.90365488037204 L 599 185.37309148323223 L 600 189.1890849284434 L 601 193.3455304405284 L 602 197.835778593329 L 603 202.65264594766967 L 604 207.78842654332615 L 605 213.23490422692063 L 606 218.98336579601258 L 607 225.0246149383651 L 608 231.34898694408037 L 609 237.94636416707723 L 610 244.8061922111643 L 611 251.9174968148236 L 612 259.26890140768546 L 613 266.8486453106178 L 614 274.64460255030195 L 615 282.6443012582038 L 616 290.8349436229007 L 617 299.20342636385374 L 618 307.73636169385844 L 619 316.42009873665 L 620 325.2407453653903 L 621 334.1841904271116 L 622 343.2361263175484 L 623 352.3820718702534 L 624 361.6073955233718 L 625 370.89733872702334 L 626 380.23703955383115 L 627 389.6115564748355 L 628 399.00589226275395 L 629 408.4050179843423 L 630 417.7938970434866 L 631 427.1575092365464 L 632 436.48087478147755 L 633 445.7490782822852 L 634 454.9472925904801 L 635 464.0608025253503 L 636 473.0750284151125 L 637 481.9755494212738 L 638 490.7481266089017 L 639 499.3787257258793 L 640 507.8535396547165 L 641 516.1590105009896 L 642 524.2818512830843 L 643 532.2090671885298 L 644 539.9279763629274 L 645 547.4262301982092 L 646 554.6918330877818 L 647 561.7131616169344 L 648 568.4789831578246 L 649 574.9784738392839 L 650 581.2012358627067 L 651 587.1373141363073 L 652 592.7772122011438 L 653 598.111907423427 L 654 603.1328654288079 L 655 607.832053755559 L 656 612.2019547047975 L 657 616.2355773672007 L 658 619.9264688069685 L 659 623.2687243851458 L 660 626.2569972057838 L 661 628.886506669834 L 662 631.1530461230858 L 663 633.0529895859165 L 664 634.5832975540854 L 665 635.741521861292 L 666 636.5258095957189 L 667 636.9349060642971 L 668 636.9681567999461 L 669 636.6255086085819 L 670 635.9075096542164 L 671 634.8153085820117 L 672 633.3506526806926 L 673 631.5158850872581 L 674 629.3139410384617 L 675 626.7483431750582 L 676 623.8231959063307 L 677 620.5431788439113 L 678 616.9135393153995 L 679 612.94008396976 L 680 608.6291694879202 L 681 603.9876924134383 L 682 599.0230781195041 L 683 593.7432689299275 L 684 588.1567114131121 L 685 582.2723428693496 L 686 576.0995770330443 L 687 569.648289012749 L 688 562.9287994930943 L 689 555.9518582238968 L 690 548.728626822852 L 691 541.270660919329 L 692 533.5898916678248 L 693 525.6986066606651 L 694 517.6094302704763 L 695 509.33530345388533 L 696 500.88946304874503 L 697 492.2854205980203 L 698 483.5369407342006 L 699 474.6580191588266 L 700 465.6628602523492 L 701 456.5658543501539 L 702 447.3815547210932 L 703 438.12465428535995 L 704 428.8099621089528 L 705 419.4523797123249 L 706 410.06687723113305 L 707 400.6684694672126 L 708 391.2721918681007 L 709 381.8930764735229 L 710 372.5461278673392 L 711 363.2462991734092 L 712 354.00846813378746 L 713 344.84741330750416 L 714 335.77779042802723 L 715 326.8141089572134 L 716 317.97070887326754 L 717 309.2617377298317 L 718 300.70112802292067 L 719 292.30257490189865 L 720 284.07951426016507 L 721 276.0451012405866 L 722 268.21218919007777 L 723 260.5933090969867 L 724 253.20064954418925 L 725 246.04603720995263 L 726 239.1409179477757 L 727 232.4963384754644 L 728 226.12292870273916 L 729 220.0308847256493 L 730 214.22995251499077 L 731 208.72941232483447 L 732 203.5380638460982 L 733 198.66421212892027 L 734 194.11565429634803 L 735 189.89966707060643 L 736 186.02299513189365 L 737 182.49184032833307 L 738 179.31185175433723 L 739 176.48811671326305 L 740 174.02515257881146 L 741 171.9268995681936 L 742 170.19671443862285 L 743 168.83736511722003 L 744 167.85102627292028 L 745 167.2392758374669 L 746 167.00309248105668 L 747 167.14285404667686 L 748 167.65833694563665 L 749 168.5487165152615 L 750 169.81256833817747 L 751 171.44787052107532 L 752 173.45200692930823 L 753 175.82177137214956 L 754 178.55337273201314 L 755 181.64244102943394 L 756 185.08403441410212 L 757 188.87264707077006 L 758 193.00221802738065 L 759 197.46614085133177 L 760 202.2572742183579 L 761 207.36795333712615 L 762 212.79000221126572 L 763 218.5147467192204 L 764 224.5330284909912 L 765 230.83521955957553 L 766 237.41123776365825 L 767 244.25056287692243 L 768 251.34225343816505 L 769 258.67496425530203 L 770 266.23696455525305 L 771 274.01615675067933 L 772 282.0000957935407 L 773 290.17600908451897 L 774 298.53081690644876 L 775 307.05115334907975 L 776 315.72338769167845 L 777 324.5336462092749 L 778 333.4678343676631 L 779 342.51165937164666 L 780 351.6506530304664 L 781 360.87019490381624 L 782 370.1555356914303 L 783 379.49182082881384 L 784 388.8641142513825 L 785 398.2574222889761 L 786 407.65671765253416 L 787 417.0469634745494 L 788 426.41313736485307 L 789 435.74025544323115 L 790 445.01339631043817 L 791 454.2177249192495 L 792 463.3385163073773 L 793 472.3611791542655 L 794 481.2712791240921 L 795 490.0545619576236 L 796 498.6969762759943 L 797 507.1846960599115 L 798 515.5041427683387 L 799 523.6420070612616 L 800 531.5852700917973 L 801 539.3212243335694 L 802 546.8374939100399 L 803 554.1220543932719 L 804 561.1632520404489 L 805 567.9498224373785 L 806 574.4709085191479 L 807 580.7160779391181 L 808 586.6753397584491 L 809 592.3391604294712 L 810 597.6984790473282 L 811 602.7447218454918 L 812 607.4698159119594 L 813 611.8662021041914 L 814 615.9268471421249 L 815 619.6452548599242 L 816 623.0154765984591 L 817 626.0321207218905 L 818 628.6903612431369 L 819 630.9859455444255 L 820 632.9152011805728 L 821 634.4750417541138 L 822 635.6629718528786 L 823 636.477091042121 L 824 636.9160969048075 L 825 636.9792871252077 L 826 636.6665606124488 L 827 635.9784176622396 L 828 634.9159591565045 L 829 633.480884802207 L 830 631.6754904121808 L 831 629.5026642323202 L 832 626.9658823210011 L 833 624.0692029881305 L 834 620.8172603027157 L 835 617.2152566793425 L 836 613.2689545554218 L 837 608.984667172519 L 838 604.3692484765135 L 839 599.4300821527502 L 840 594.1750698137139 L 841 588.6126183581373 L 842 582.7516265217564 L 843 576.6014706412313 L 844 570.1719896540075 L 845 563.4734693581149 L 846 556.5166259570844 L 847 549.3125889163127 L 848 541.8728831582846 L 849 534.2094106251602 L 850 526.3344312382056 L 851 518.2605432845339 L 852 510.0006632625335 L 853 501.5680052182257 L 854 492.97605960561043 L 855 484.2385717048156 L 856 475.3695196325875 L 857 466.38309198027684 L 858 457.2936651151247 L 859 448.11578018114125 L 860 438.86411983637635 L 861 429.5534847637994 L 862 420.19876999336367 L 863 410.81494107313404 L 864 401.41701012760956 L 865 392.0200118415164 L 866 382.63897940752616 L 867 373.28892047635316 L 868 363.9847931477143 L 869 354.74148204056087 L 870 345.573774480863 L 871 336.49633684504136 L 872 327.5236910968997 L 873 318.6701915555712 L 874 309.950001931676 L 875 301.3770726684045 L 876 292.9651186237839 L 877 284.72759712983105 L 878 276.6776864636921 L 879 268.8282647652103 L 880 261.1918894346477 L 881 253.78077704352947 L 882 246.60678379072706 L 883 239.68138653507467 L 884 233.01566443484202 L 885 226.62028122344466 L 886 220.50546814974518 L 887 214.68100761023754 L 888 209.15621749929872 L 889 203.93993630254917 L 890 199.04050895715534 L 891 194.46577350171447 L 892 190.2230485370637 L 893 186.31912151808018 L 894 182.76023789520085 L 895 179.55209112303427 L 896 176.69981355204743 L 897 174.20796821790134 L 898 172.08054154156486 L 899 170.3209369518933 L 900 168.9319694408678 L 901 167.91586106020878 L 902 167.27423736656706 L 903 167.00812482098002 L 904 167.11794914675295 L 905 167.60353464839272 L 906 168.46410449268254 L 907 169.69828195145007 L 908 171.3040926040384 L 909 173.27896749595809 L 910 175.6197472486662 L 911 178.32268711389816 L 912 181.383462964466 L 913 184.79717821194012 L 914 188.55837164014378 L 915 192.66102614193758 L 916 197.0985783453049 L 917 201.8639291133477 L 918 206.94945490139105 L 919 212.3470199530284 L 920 218.04798931559623 L 921 224.04324265425745 L 922 230.3231888425873 L 923 236.8777813063359 L 924 243.69653409579962 L 925 250.7685386611051 L 926 258.08248130356174 L 927 265.62666127516604 L 928 273.3890094973027 L 929 281.3571078686957 L 930 289.5182091317225 L 931 297.85925726530144 L 932 306.366908371749 L 933 315.0275520241636 L 934 323.8273330402068 L 935 332.75217364743946 L 936 341.78779600475445 L 937 350.91974504387673 L 938 360.1334115943905 L 939 369.41405575528916 L 940 378.746830475682 L 941 388.11680530690205 L 942 397.5089902880409 L 943 406.90835992668787 L 944 416.29987723651305 L 945 425.66851779323764 L 946 434.9992937705092 L 947 444.27727791722015 L 948 453.4876274379352 L 949 462.61560773819093 L 950 471.6466159967056 L 951 480.5662045267778 L 952 489.36010388950365 L 953 498.01424572183447 L 954 506.5147852429571 L 955 514.8481234029908 L 956 523.0009286385607 L 957 530.9601582004636 L 958 538.7130790192791 L 959 546.2472880755652 L 960 553.5507322420439 L 961 560.6117275660339 L 962 567.4189779612823 L 963 573.9615932792937 L 964 580.2291067312404 L 965 586.2114916325988 L 966 591.8991774437009 L 967 597.2830650805569 L 968 602.3545414714494 L 969 607.1054933360102 L 970 611.5283201647386 L 971 615.6159463781951 L 972 619.3618326464172 L 973 622.7599863504563 L 974 625.8049711692868 L 975 628.4919157767606 L 976 630.8165216346902 L 977 632.775069869592 L 978 634.364427222092 L 979 635.5820510594706 L 980 636.4259934433342 L 981 636.8949042458997 L 982 636.9880333099122 L 983 636.7052316487359 L 984 636.0469516847005 L 985 635.0142465253232 L 986 633.6087682785601 L 987 631.8327654097868 L 988 629.6890791447325 L 989 627.1811389241268 L 990 624.3129569173234 L 991 621.0891216036871 L 992 617.5147904320048 L 993 613.595681569668 L 994 609.3380647548244 L 995 604.7487512661345 L 996 599.8350830261782 L 997 594.6049208559476 L 998 589.066631899206 L 999 583.2290762368455 L 1000 577.101592712647 L 1001 570.6939839931225 L 1002 564.0165008853396 L 1003 557.0798259378172 L 1004 549.8950563507259 L 1005 542.4736862227348 L 1006 534.8275881629103 L 1007 526.9689942970659 L 1008 518.9104766989766 L 1009 510.6649272777404 L 1010 502.2455371534747 L 1011 493.6657755543375 L 1012 484.93936826863586 L 1013 476.08027568649106 L 1014 467.1026704661988 L 1015 458.02091486098965 L 1016 448.84953774249396 L 1017 439.60321135764536 L 1018 430.2967278562151 L 1019 420.9449756265283 L 1020 411.5629154772182 L 1021 402.16555670312283 L 1022 392.76793307362095 L 1023 383.3850787817987 L 1024 374.03200439295415 L 1025 364.7236728308934 L 1026 355.47497544044415 L 1027 346.30070816448097 L 1028 337.21554787357275 L 1029 328.23402888612077 L 1030 319.3705197165482 L 1031 310.63920008874834 L 1032 302.054038251542 L 1033 293.6287686324651 L 1034 285.37686986561323 L 1035 277.31154322870213 L 1036 269.4456915238396 L 1037 261.7918984357947 L 1038 254.3624084007847 L 1039 247.16910701799492 L 1040 240.22350203514745 L 1041 233.53670493856478 L 1042 227.1194131771608 L 1043 220.98189304880452 L 1044 215.1339632764335 L 1045 209.58497930019175 L 1046 204.34381831072022 L 1047 199.4188650475492 L 1048 194.81799838529815 L 1049 190.54857872916085 L 1050 186.61743623982605 L 1051 183.0308599066778 L 1052 179.79458748675358 L 1053 176.91379632555734 L 1054 174.393095074411 L 1055 172.2365163175951 L 1056 170.44751012107568 L 1057 169.02893851313254 L 1058 167.98307090572587 L 1059 167.31158046392096 L 1060 167.01554142918116 L 1061 167.09542740081025 L 1062 167.55111057829524 L 1063 168.38186196575944 L 1064 169.58635253820015 L 1065 171.1626553676459 L 1066 173.10824870582954 L 1067 175.42002001844776 L 1068 178.09427096455195 L 1069 181.1267233131048 L 1070 184.51252578723728 L 1071 188.2462618252575 L 1072 192.32195824599114 L 1073 196.7330948046012 L 1074 201.4726146235862 L 1075 206.5329354822794 L 1076 211.90596194678443 L 1077 217.58309832094258 L 1078 223.55526239761303 L 1079 229.81289998826688 L 1080 236.3460002076517 L 1081 243.1441114890679 L 1082 250.19635830465273 L 1083 257.4914585639004 L 1084 265.01774166260105 L 1085 272.76316715331825 L 1086 280.71534400753626 L 1087 288.8615504386621 L 1088 297.18875425417224 L 1089 305.6836337043343 L 1090 314.3325987941738 L 1091 323.1218130245611 L 1092 332.03721552766 L 1093 341.06454356131655 L 1094 350.1893553264043 L 1095 359.3970530706217 L 1096 368.6729064417838 L 1097 378.0020760532367 L 1098 387.36963722372025 L 1099 396.7606038536683 L 1100 406.1599523997722 L 1101 415.5526459094457 L 1102 424.92365807674094 L 1103 434.25799728123303 L 1104 443.5407305714142 L 1105 452.75700755423264 L 1106 461.89208415254683 L 1107 470.93134619251344 L 1108 479.86033278314164 L 1109 488.6647594506353 L 1110 497.33054099050395 L 1111 505.84381400088523 L 1112 514.1909590610306 L 1113 522.3586225194746 L 1114 530.3337378570228 L 1115 538.1035465904037 L 1116 545.6556186831147 L 1117 552.9778724308303 L 1118 560.0585937895515 L 1119 566.886455115578 L 1120 573.4505332873206 L 1121 579.7403271799676 L 1122 585.7457744650399 L 1123 591.4572677079761 L 1124 596.8656697379745 L 1125 601.9623282655178 L 1126 606.7390897241913 L 1127 611.1883123146492 L 1128 615.3028782298637 L 1129 619.0762050420976 L 1130 622.5022562333853 L 1131 625.5755508526715 L 1132 628.2911722841673 L 1133 630.644776112884 L 1134 632.6325970747707 L 1135 634.2514550803347 L 1136 635.4987603021048 L 1137 636.3725173178036 L 1138 636.871328302598 L 1139 636.9943952653192 L 1140 636.7415213250799 L 1141 636.1131110262411 L 1142 635.1101696912269 L 1143 633.7343018122241 L 1144 631.9877084843363 L 1145 629.8731838843014 L 1146 627.3941108004044 L 1147 624.5544552207398 L 1148 621.3587599884736 L 1149 617.8121375342656 L 1150 613.9202616974701 L 1151 609.6893586492034 L 1152 605.1261969317982 L 1153 600.2380766305798 L 1154 595.0328176952867 L 1155 589.5187474298183 L 1156 583.7046871703291 L 1157 577.5999381729667 L 1158 571.2142667338499 L 1159 564.5578885650771 L 1160 557.641452451767 L 1161 550.4760232162732 L 1162 543.0730640168291 L 1163 535.4444180089386 L 1164 527.6022893988593 L 1165 519.559223919468 L 1166 511.328088759769 L 1167 502.9220519801362 L 1168 494.3545614462247 L 1169 485.6393233152549 L 1170 476.79028010908473 L 1171 467.8215884091473 L 1172 458.74759620894673 L 1173 449.58281996032014 L 1174 440.34192135021726 L 1175 431.0396838451276 L 1176 421.690989040688 L 1177 412.31079285430354 L 1178 402.91410159887073 L 1179 393.5159479758776 L 1180 384.1313670262869 L 1181 374.77537207768404 L 1182 365.46293072614606 L 1183 356.2089408912871 L 1184 347.0282069827638 L 1185 337.9354162163777 L 1186 328.945115117663 L 1187 320.0716862505492 L 1188 311.3293252083248 L 1189 302.7320179037229 L 1190 294.293518194435 L 1191 286.0273258798786 L 1192 277.9466651043968 L 1193 270.0644632014479 L 1194 262.3933300126298 L 1195 254.9455377146237 L 1196 247.73300118632739 L 1197 240.76725894759633 L 1198 234.05945470006543 L 1199 227.6203194996088 L 1200 221.4601545889383 L 1201 215.58881491781253 L 1202 210.01569337721966 L 1203 204.74970577275545 L 1204 199.79927656123624 L 1205 195.17232537336443 L 1206 190.876254344012 L 1207 186.9179362703788 L 1208 183.30370361698644 L 1209 180.03933838508522 L 1210 177.13006286268538 L 1211 174.58053127001043 L 1212 172.39482231373756 L 1213 170.5764326619368 L 1214 169.1282713501493 L 1215 168.0526551275489 L 1216 167.3513047506392 L 1217 167.02534223040988 L 1218 167.0752890373583 L 1219 167.5010652672481 L 1220 168.30198976893888 L 1221 169.47678123408295 L 1222 171.0235602469445 L 1223 172.93985229106502 L 1224 175.2225917079611 L 1225 177.86812660152412 L 1226 180.87222468027508 L 1227 184.23008002812807 L 1228 187.93632079283077 L 1229 191.98501777978223 L 1230 196.36969393748004 L 1231 201.08333471941802 L 1232 206.11839930586893 L 1233 211.46683266758424 L 1234 217.12007845212352 L 1235 223.06909267219288 L 1236 229.30435817409565 L 1237 235.8158998631477 L 1238 242.59330066170273 L 1239 249.6257181742489 L 1240 256.9019020329365 L 1241 264.4102118957613 L 1242 272.13863606863015 L 1243 280.07481072150904 L 1244 288.20603966791367 L 1245 296.51931467609944 L 1246 305.0013362794589 L 1247 313.638535052825 L 1248 322.4170933206661 L 1249 331.32296726241276 L 1250 340.34190937957675 L 1251 349.4594912887089 L 1252 358.66112680373504 L 1253 367.932095270742 L 1254 377.2575651178837 L 1255 386.6226175827339 L 1256 396.0122705791167 L 1257 405.4115026652588 L 1258 414.8052770748849 L 1259 424.1785657728379 L 1260 433.51637349672944 L 1261 442.8037617461606 L 1262 452.0258726811362 L 1263 461.1679528914406 L 1264 470.21537699894054 L 1265 479.1536710550798 L 1266 487.96853569610295 L 1267 496.6458690189885 L 1268 505.1717891414856 L 1269 513.5326564101641 L 1270 521.7150952209508 L 1271 529.7060154172437 L 1272 537.4926332313646 L 1273 545.0624917358688 L 1274 552.4034807719661 L 1275 559.5038563231931 L 1276 566.3522593033335 L 1277 572.9377337285341 L 1278 579.2497442445408 L 1279 585.2781929810183 L 1280 591.0134357059898 L 1281 596.4462972545465 L 1282 601.5680862071604 L 1283 606.3706087940972 L 1284 610.8461820037015 L 1285 614.987645873576 L 1286 618.788374944994 L 1287 622.24228886222 L 1288 625.3438620997829 L 1289 628.0881328021352 L 1290 630.4707107215667 L 1291 632.4877842416626 L 1292 634.1361264750767 L 1293 635.4131004258633 L 1294 636.3166632081077 L 1295 636.845369314108 L 1296 636.9983729268791 L 1297 636.7754292732799 L 1298 636.1768950155971 L 1299 635.2037276809626 L 1300 633.8574841295141 L 1301 632.1403180637502 L 1302 630.0549765830672 L 1303 627.6047957889848 L 1304 624.7936954480965 L 1305 621.6261727212775 L 1306 618.1072949691896 L 1307 614.242691645582 L 1308 610.0385452913677 L 1309 605.5015816438763 L 1310 600.6390588771103 L 1311 595.4587559902135 L 1312 589.9689603627326 L 1313 584.1784544965765 L 1314 578.0965019658911 L 1315 571.7328325973106 L 1316 565.0976269043142 L 1317 558.2014998005757 L 1318 551.0554836183657 L 1319 543.6710104591735 L 1320 536.0598939047838 L 1321 528.2343101180638 L 1322 520.2067783637063 L 1323 511.99014098006796 L 1324 503.59754283417357 L 1325 495.042410292731 L 1326 486.33842974280907 L 1327 477.4995256965374 L 1328 468.53983851485776 L 1329 459.4737017859629 L 1330 450.3156193946113 L 1331 441.08024231901237 L 1332 431.78234519237674 L 1333 422.43680266666144 L 1334 413.0585656162982 L 1335 403.66263721998376 L 1336 394.2640489587944 L 1337 384.8778365690227 L 1338 375.5190159882055 L 1339 366.2025593328336 L 1340 356.943370946149 L 1341 347.75626355438243 L 1342 338.65593456954883 L 1343 329.6569425767241 L 1344 320.773684043414 L 1345 312.02037028827783 L 1346 303.4110047460484 L 1347 294.95936056502944 L 1348 286.6789585729879 L 1349 278.5830456467195 L 1350 270.6845735198702 L 1351 262.9961780629254 L 1352 255.53015906851292 L 1353 248.29846057435776 L 1354 241.31265175537064 L 1355 234.5839084154343 L 1356 228.1229951085064 L 1357 221.9402479176221 L 1358 216.04555791937108 L 1359 210.44835536028378 L 1360 205.1575945704485 L 1361 200.18173963849364 L 1362 195.5287508708511 L 1363 191.2060720569637 L 1364 187.220618560813 L 1365 183.57876625780725 L 1366 180.2863413347442 L 1367 177.3486109691542 L 1368 174.7702749029399 L 1369 172.55545792379144 L 1370 170.70770326640644 L 1371 169.22996694406982 L 1372 168.12461301966425 L 1373 167.39340982367221 L 1374 167.0375271252256 L 1375 167.05753426072434 L 1376 167.4533992230196 L 1377 168.22448871261838 L 1378 169.36956915082766 L 1379 170.8868086532171 L 1380 172.77377996024373 L 1381 175.02746432034803 L 1382 177.64425631931454 L 1383 180.61996964816407 L 1384 183.94984380035547 L 1385 187.62855168758045 L 1386 191.6502081619687 L 1387 196.00837943106873 L 1388 200.69609335054452 L 1389 205.7058505781155 L 1390 211.02963657090962 L 1391 216.65893440701885 L 1392 222.58473841075818 L 1393 228.7975685598258 L 1394 235.28748565131627 L 1395 242.04410720232494 L 1396 249.05662405970725 L 1397 256.3138176924127 L 1398 263.804078138749 L 1399 271.51542257983886 L 1400 279.4355145095757 L 1401 287.5516834704015 L 1402 295.85094532333585 L 1403 304.32002301982897 L 1404 312.94536784220657 L 1405 321.7131810787299 L 1406 330.60943609858447 L 1407 339.61990079150655 L 1408 348.7301603361175 L 1409 357.92564026056425 L 1410 367.19162975856545 L 1411 376.51330522356335 L 1412 385.87575396333193 L 1413 395.2639980571052 L 1414 404.6630183170483 L 1415 414.0577783157644 L 1416 423.4332484413641 L 1417 432.7744299416401 L 1418 442.0663789188711 L 1419 451.29423023687025 L 1420 460.443221302032 L 1421 469.4987156803343 L 1422 478.4462265125046 L 1423 487.2714396899134 L 1424 495.96023675408867 L 1425 504.49871748323886 L 1426 512.8732221296427 L 1427 521.0703532723319 L 1428 529.0769972501059 L 1429 536.8803451405934 L 1430 544.4679132517963 L 1431 551.8275630933288 L 1432 558.9475207954208 L 1433 565.8163959445923 L 1434 572.4231998058865 L 1435 578.7573629025015 L 1436 584.808751924699 L 1437 590.5676859409373 L 1438 596.0249518852988 L 1439 601.171819296425 L 1440 606.0000542843991 L 1441 610.5019327032086 L 1442 614.6702525077332 L 1443 618.4983452754796 L 1444 621.9800868746356 L 1445 625.1099072613747 L 1446 627.8827993907379 L 1447 630.294327226836 L 1448 632.3406328395635 L 1449 634.018442576462 L 1450 635.3250722998662 L 1451 636.2584316809514 L 1452 636.817027543814 L 1453 636.999966254234 L 1454 636.8069551492997 L 1455 636.2383030056053 L 1456 635.294919545275 L 1457 633.9783139806008 L 1458 632.2905925996254 L 1459 630.23445539653 L 1460 627.8131917522207 L 1461 625.0306751720198 L 1462 621.8913570888833 L 1463 618.4002597420584 L 1464 614.5629681425735 L 1465 610.3856211384086 L 1466 605.8749015936505 L 1467 601.0380256973353 L 1468 595.8827314190854 L 1469 590.4172661300084 L 1470 584.6503734086632 L 1471 578.5912790531979 L 1472 572.2496763220456 L 1473 565.635710426772 L 1474 558.7599623019053 L 1475 551.6334316776974 L 1476 544.2675194829014 L 1477 536.6740096057184 L 1478 528.8650500420894 L 1479 520.8531334614936 L 1480 512.6510772213409 L 1481 504.27200286193965 L 1482 495.729315114823 L 1483 487.0366804580435 L 1484 478.2080052527221 L 1485 469.2574134958371 L 1486 460.1992242248417 L 1487 451.047928610259 L 1488 441.8181667728983 L 1489 432.52470436279174 L 1490 423.1824089372944 L 1491 413.80622617617024 L 1492 404.4111559716915 L 1493 395.0122284320106 L 1494 385.62447983619336 L 1495 376.26292857938023 L 1496 366.942551146556 L 1497 357.6782581533754 L 1498 348.4848704923487 L 1499 339.3770956225822 L 1500 330.3695040409791 L 1501 321.4765059725529 L 1502 312.7123283171414 L 1503 304.09099188940166 L 1504 295.62628898849783 L 1505 287.3317613333628 L 1506 279.22067839884295 L 1507 271.3060161873599 L 1508 263.6004364700808 L 1509 256.11626653078406 L 1510 248.86547944483462 L 1511 241.85967492481802 L 1512 235.11006076347434 L 1513 228.62743490361973 L 1514 222.42216816374577 L 1515 216.50418764691548 L 1516 210.88296085952064 L 1517 205.56748056528997 L 1518 200.56625039878557 L 1519 195.88727126140165 L 1520 191.53802852162903 L 1521 187.52548004006175 L 1522 183.85604503830697 L 1523 180.53559382959577 L 1524 177.56943842753694 L 1525 174.96232404802765 L 1526 172.71842151792043 L 1527 170.84132060258975 L 1528 169.3340242630733 L 1529 168.1989438519749 L 1530 167.43789525581462 L 1531 167.05209598999826 L 1532 167.04216325105145 L 1533 167.4081129292377 L 1534 168.1493595831369 L 1535 169.2647173762271 L 1536 170.75240197396968 L 1537 172.61003339836392 L 1538 174.8346398354049 L 1539 177.42266238934988" stroke-linecap="round" stroke-linejoin="round" stroke-miterlimit="10" stroke-width="11"/></g></svg>