<svg version="1.1" xmlns="http://www.w3.org/2000/svg" xmlns:xlink="http://www.w3.org/1999/xlink" width="1560" height="804"><defs/><g><path fill="none" stroke="#02063B" paint-order="fill stroke markers" d=" M 66 785.1538572250527 L 67 783.8283473830038 L 68 782.2518135909005 L 69 780.425292303324 L 70 778.3499843231784 L 71 776.0272540122521 L 72 773.4586283942493 L 73 770.6457961508862 L 74 767.5906065117065 L 75 764.2950680383492 L 76 760.7613473040687 L 77 756.9917674693723 L 78 752.9888067547131 L 79 748.7550968112438 L 80 744.2934209907 L 81 739.6067125155519 L 82 734.6980525506274 L 83 729.5706681774732 L 84 724.227930272787 L 85 718.6733512923157 L 86 712.9105829616736 L 87 706.943413875604 L 88 700.7757670072567 L 89 694.411697129123 L 90 687.8553881473224 L 91 681.1111503509933 L 92 674.1834175785957 L 93 667.0767443029897 L 94 659.7958026372064 L 95 652.345379262878 L 96 644.730372283348 L 97 636.9557880035301 L 98 629.0267376386323 L 99 620.9484339539099 L 100 612.7261878376576 L 101 604.3654048096923 L 102 595.8715814676231 L 103 587.2503018732433 L 104 578.5072338814234 L 105 569.6481254139137 L 106 560.6788006805114 L 107 551.6051563500707 L 108 542.4331576738806 L 109 533.1688345639507 L 110 523.8182776287902 L 111 514.3876341692824 L 112 504.8831041372878 L 113 495.31093605963355 L 114 485.67742293016875 L 115 475.98889807258496 L 116 466.25173097672416 L 117 456.4723231111087 L 118 446.6571037144488 L 119 436.8125255688923 L 120 426.9450607577971 L 121 417.0611964108146 L 122 407.1674304390798 L 123 397.2702672633151 L 124 387.3762135376538 L 125 377.49177387199524 L 126 367.6234465557044 L 127 357.77771928546565 L 128 347.96106490010163 L 129 338.1799371251595 L 130 328.4407663300626 L 131 318.7499553006181 L 132 309.1138750296568 L 133 299.5388605285765 L 134 290.03120666253926 L 135 280.59716401206254 L 136 271.2429347637244 L 137 261.97466863268255 L 138 252.79845881969146 L 139 243.7203380052725 L 140 234.74627438367222 L 141 225.88216773921434 L 142 217.13384556762796 L 143 208.50705924489893 L 144 200.00748024616468 L 145 191.6406964171386 L 146 183.4122083005131 L 147 175.3274255197595 L 148 167.39166322269975 L 149 159.61013858718903 L 150 151.98796739120706 L 151 144.53016064961076 L 152 137.24162131976271 L 153 130.12714107819824 L 154 123.19139717045203 L 155 116.4389493361146 L 156 109.87423681113972 L 157 103.50157540937488 L 158 97.32515468523212 L 159 91.34903517936544 L 160 85.57714574916491 L 161 80.0132809858228 L 162 74.66109871967103 L 163 69.52411761542635 L 164 64.60571485892876 L 165 59.90912393689143 L 166 55.43743251112119 L 167 51.19358038860935 L 168 47.180357588825586 L 169 43.4004025094859 L 170 39.85620019200098 L 171 36.550080687745094 L 172 33.48421752621908 L 173 30.660626286115416 L 174 28.081163270223726 L 175 25.74752428504894 L 176 23.661243525943746 L 177 21.82369256848824 L 178 20.23607946678038 L 179 18.89944795922952 L 180 17.8146767823755 L 181 16.982479093184224 L 182 16.403402000199662 L 183 16.07782620386024 L 184 16.005965746216532 L 185 16.187867870214404 L 186 16.623412988636233 L 187 17.31231476272046 L 188 18.25412029040865 L 189 19.44821040409488 L 190 20.893800077682613 L 191 22.58993894268184 L 192 24.53551191300545 L 193 26.729239918056805 L 194 29.16968074362387 L 195 31.855229980028582 L 196 34.78412207690769 L 197 37.95443150393203 L 198 41.36407401670033 L 199 45.010808026976235 L 200 48.89223607636694 L 201 53.00580641247495 L 202 57.348814666487215 L 203 61.91840563109798 L 204 66.71157513759647 L 205 71.72517203088631 L 206 76.95590024113727 L 207 82.40032095070785 L 208 88.05485485491414 L 209 93.91578451515801 L 210 99.97925680286943 L 211 106.24128543265249 L 212 112.69775358297557 L 213 119.34441660267629 L 214 126.17690480150702 L 215 133.19072632288317 L 216 140.3812700969474 L 217 147.7438088720077 L 218 155.27350232235653 L 219 162.96540023042738 L 220 170.81444574119766 L 221 178.81547868669676 L 222 186.96323897843678 L 223 195.25237006553166 L 224 203.67742245623384 L 225 212.23285730057322 L 226 220.9130500317417 L 227 229.71229406383085 L 228 238.62480454349088 L 229 247.64472215304446 L 230 256.766116962556 L 231 265.98299232832164 L 232 275.2892888352213 L 233 284.678888280336 L 234 294.1456176952146 L 235 303.6832534041449 L 236 313.2855251157612 L 237 322.9461200452974 L 238 332.6586870647776 L 239 342.4168408784139 L 240 352.2141662204655 L 241 362.04422207280464 L 242 371.90054589940894 L 243 381.7766578950023 L 244 391.6660652450483 L 245 401.56226639429633 L 246 411.4587553210746 L 247 421.34902581451865 L 248 431.22657575192505 L 249 441.08491137341707 L 250 450.9175515511113 L 251 460.7180320499824 L 252 470.47990977761975 L 253 480.19676702008474 L 254 489.8622156610841 L 255 499.469901381685 L 256 509.01350783781027 L 257 518.4867608127686 L 258 527.8834323420886 L 259 537.1973448079461 L 260 546.4223750004909 L 261 555.5524581434063 L 262 564.5815918810513 L 263 573.5038402245659 L 264 582.3133374543465 L 265 591.0042919763227 L 266 599.570990129503 L 267 608.0077999422854 L 268 616.3091748350624 L 269 624.4696572666888 L 270 632.48388232241 L 271 640.3465812408997 L 272 648.05258487808 L 273 655.5968271054526 L 274 662.9743481407043 L 275 670.1802978083972 L 276 677.2099387286019 L 277 684.058649431374 L 278 690.7219273950305 L 279 697.1953920062242 L 280 703.4747874398748 L 281 709.5559854570588 L 282 715.4349881190226 L 283 721.107930415531 L 284 726.5710828058275 L 285 731.8208536705304 L 286 736.8537916728591 L 287 741.6665880276319 L 288 746.2560786765489 L 289 750.6192463683255 L 290 754.7532226423141 L 291 758.6552897143039 L 292 762.3228822632639 L 293 765.7535891178519 L 294 768.9451548415818 L 295 771.8954812156065 L 296 774.602628618142 L 297 777.0648172996255 L 298 779.2804285527689 L 299 781.24800577674 L 300 782.9662554347701 L 301 784.4340479045579 L 302 785.6504182209142 L 303 786.6145667101537 L 304 787.3258595158229 L 305 787.7838290154131 L 306 787.9881741277875 L 307 787.9387605111206 L 308 787.6356206512173 L 309 787.0789538401566 L 310 786.2691260452707 L 311 785.2066696685495 L 312 783.8922831966254 L 313 782.3268307415693 L 314 780.5113414728016 L 315 778.4470089404886 L 316 776.1351902908716 L 317 773.5774053740435 L 318 770.7753357447593 L 319 767.7308235569387 L 320 764.4458703525851 L 321 760.9226357459195 L 322 757.1634360035941 L 323 753.1707425219184 L 324 748.947180202097 L 325 744.4955257245521 L 326 739.8187057234607 L 327 734.9197948627091 L 328 729.8020138145275 L 329 724.4687271421367 L 330 718.9234410877959 L 331 713.1698012677067 L 332 707.2115902752903 L 333 701.0527251944114 L 334 694.6972550241844 L 335 688.149358017056 L 336 681.4133389319118 L 337 674.493626204016 L 338 667.3947690336418 L 339 660.1214343953079 L 340 652.6784039695876 L 341 645.0705709995065 L 342 637.3029370735961 L 343 629.380608837721 L 344 621.3087946378323 L 345 613.0928010958676 L 346 604.7380296210376 L 347 596.2499728587991 L 348 587.634211079845 L 349 578.8964085114894 L 350 570.0423096138557 L 351 561.077735303318 L 352 552.008579125679 L 353 542.8408033815979 L 354 533.5804352068186 L 355 524.2335626097723 L 356 514.806330469162 L 357 505.30493649415774 L 358 495.735627149861 L 359 486.1046935507144 L 360 476.41846732455906 L 361 466.6833164500556 L 362 456.90564107021106 L 363 447.09186928475344 L 364 437.24845292413323 L 365 427.38186330792064 L 366 417.49858699039066 L 367 407.60512149609247 L 368 397.70797104820684 L 369 387.81364229249937 L 370 377.92864001968155 L 371 368.05946288899065 L 372 358.21259915580146 L 373 348.3945224060771 L 374 338.6116873004644 L 375 328.87052533083056 L 376 319.1774405920328 L 377 309.53880557169805 L 378 299.9609569607832 L 379 290.45019148766846 L 380 281.0127617785233 L 381 271.65487224666583 L 382 262.38267501362134 L 383 253.2022658645532 L 384 244.1196802407362 L 385 235.14088927169917 L 386 226.27179584964802 L 387 217.51823074874991 L 388 208.8859487918297 L 389 200.38062506699868 L 390 192.00785119670326 L 391 183.77313166164595 L 392 175.68188018199564 L 393 167.73941615826627 L 394 159.95096117420368 L 395 152.3216355639798 L 396 144.85645504595095 L 397 137.5603274251934 L 398 130.43804936698342 L 399 123.49430324334458 L 400 116.73365405473305 L 401 110.1605464288885 L 402 103.77930169881705 L 403 97.59411506183545 L 404 91.60905282153817 L 405 85.82804971450304 L 406 80.25490632349221 L 407 74.89328657884988 L 408 69.74671534973845 L 409 64.81857612679704 L 410 60.1121087977466 L 411 55.630407517402546 L 412 51.37641867349663 L 413 47.352938949644454 L 414 43.562613486732346 L 415 40.00793414393269 L 416 36.69123786049033 L 417 33.614705119357666 L 418 30.780358513688043 L 419 28.190061417129982 L 420 25.845516758796464 L 421 23.748265903715378 L 422 21.899687639495085 L 423 20.300997269873506 L 424 18.953245815745902 L 425 17.85731932419617 L 426 17.013938285985944 L 427 16.42365716188567 L 428 16.086864018157087 L 429 16.003780271428468 L 430 16.174460543129783 L 431 16.59879262358271 L 432 17.27649754577061 L 433 18.20712976873841 L 434 19.390077470503115 L 435 20.824562950281575 L 436 22.5096431397713 L 437 24.444210223148048 L 438 26.626992365373326 L 439 29.05655454833203 L 440 31.731299514250054 L 441 34.64946881577464 L 442 37.809143972022866 L 443 41.20824772984162 L 444 44.844545429447635 L 445 48.71564647355194 L 446 52.81900589900084 L 447 57.15192604990119 L 448 61.71155835113012 L 449 66.49490518106302 L 450 71.49882184228801 L 451 76.72001862901288 L 452 82.15506298980358 L 453 87.80038178423308 L 454 93.65226363195785 L 455 99.70686135267624 L 456 105.9601944953655 L 457 112.4081519551346 L 458 119.04649467597193 L 459 125.87085843761258 L 460 132.87675672468862 L 461 140.05958367628483 L 462 147.41461711395036 L 463 154.93702164618287 L 464 162.6218518473414 L 465 170.4640555088986 L 466 178.4584769608952 L 467 186.59986046141194 L 468 194.8828536518321 L 469 203.30201107562223 L 470 211.85179775831764 L 471 220.52659284635962 L 472 229.3206933023916 L 473 238.22831765458525 L 474 247.24360979753143 L 475 256.360642842197 L 476 265.57342301241715 L 477 274.8758935853602 L 478 284.261938873377 L 479 293.72538824461094 L 480 303.2600201797371 L 481 312.8595663621491 L 482 322.5177157989154 L 483 332.22811896979084 L 484 341.9843920015579 L 485 351.7801208649518 L 486 361.60886559141125 L 487 371.46416450688235 L 488 381.3395384798923 L 489 391.2284951811002 L 490 401.12453335152367 L 491 411.02114707663753 L 492 420.9118300635316 L 493 430.7900799183185 L 494 440.6494024209771 L 495 450.48331579482306 L 496 460.2853549677985 L 497 470.0490758227794 L 498 479.7680594341078 L 499 489.4359162875585 L 500 499.04629048097735 L 501 508.5928639028148 L 502 518.0693603858188 L 503 527.4695498331506 L 504 536.7872523142147 L 505 546.0163421275059 L 506 555.1507518278065 L 507 564.1844762150834 L 508 573.1115762824634 L 509 581.9261831206926 L 510 590.62250177651 L 511 599.1948150624025 L 512 607.6374873152326 L 513 615.9449681012717 L 514 624.1117958651997 L 515 632.1326015206753 L 516 640.0021119801133 L 517 647.7151536213512 L 518 655.2666556889213 L 519 662.651653627702 L 520 669.8652923467437 L 521 676.9028294111328 L 522 683.7596381597933 L 523 690.4312107471749 L 524 696.9131611068276 L 525 703.201227834918 L 526 709.2912769917866 L 527 715.1793048197087 L 528 720.8614403750693 L 529 726.3339480732222 L 530 731.5932301443622 L 531 736.635828998792 L 532 741.4584295000332 L 533 746.0578611442829 L 534 750.4311001447867 L 535 754.5752714197545 L 536 758.4876504825153 L 537 762.1656652326653 L 538 765.6068976470344 L 539 768.8090853693578 L 540 771.7701231976089 L 541 774.4880644680131 L 542 776.9611223348361 L 543 779.1876709451033 L 544 781.1662465074776 L 545 782.8955482545944 L 546 784.37443929822 L 547 785.6019473766719 L 548 786.5772654940091 L 549 787.2997524505718 L 550 787.7689332645234 L 551 787.9844994841159 L 552 787.946309390474 L 553 787.6543880907649 L 554 787.1089275016922 L 555 786.3102862233247 L 556 785.2589893033435 L 557 783.9557278918619 L 558 782.4013587870452 L 559 780.5969038718288 L 560 778.5435494421064 L 561 776.2426454268273 L 562 773.6957045005179 L 563 770.9044010888103 L 564 767.8705702676309 L 565 764.5962065567727 L 566 761.0834626086469 L 567 757.3346477930725 L 568 753.3522266790353 L 569 749.1388174144172 L 570 744.6971900047561 L 571 740.030264492172 L 572 735.1411090356555 L 573 730.0329378939789 L 574 724.7091093125587 L 575 719.1731233156574 L 576 713.4286194053755 L 577 707.4793741689482 L 578 701.3292987959175 L 579 694.9824365068135 L 580 688.4429598950368 L 581 681.7151681836845 L 582 674.8034843991302 L 583 667.7124524632093 L 584 660.4467342059265 L 585 653.011106300647 L 586 645.4104571237858 L 587 637.6497835410612 L 588 629.7341876224245 L 589 621.6688732878264 L 590 613.4591428860225 L 591 605.1103937086714 L 592 596.6281144420137 L 593 588.0178815584657 L 594 579.2853556505008 L 595 570.4362777092272 L 596 561.4764653501121 L 597 552.4118089883259 L 598 543.2482679662314 L 599 533.9918666355552 L 600 524.6486903968214 L 601 515.2248816986502 L 602 505.7266359995511 L 603 496.1601976948665 L 604 486.5318560115426 L 605 476.847940873427 L 606 467.1148187398113 L 607 457.3388884199539 L 608 447.5265768663353 L 609 437.6843349494113 L 610 427.81863321664224 L 611 417.93595763858514 L 612 408.0428053448474 L 613 398.1456803527035 L 614 388.25108929118386 L 615 378.36553712344585 L 616 368.4955228702435 L 617 358.64753533729726 L 618 348.8280488493855 L 619 339.0435189939538 L 620 329.3003783770424 L 621 319.60503239432296 L 622 309.9638550200233 L 623 300.3831846165104 L 624 290.86931976728476 L 625 281.428515136127 L 626 272.0669773551176 L 627 262.7908609442354 L 628 253.60626426521426 L 629 244.5192255123209 L 630 235.53571874268775 L 631 226.6616499488115 L 632 217.9028531757989 L 633 209.265086685913 L 634 200.75402917294068 L 635 192.3752760288708 L 636 184.1343356653368 L 637 176.0366258922432 L 638 168.087470355955 L 639 160.2920950393936 L 640 152.65562482633865 L 641 145.1830801321954 L 642 137.87937360344216 L 643 130.74930688792784 L 644 123.79756747814218 L 645 117.02872562953917 L 646 110.44723135592585 L 647 104.05741150391054 L 648 97.86346690831954 L 649 91.86946963045864 L 650 86.07936028103319 L 651 80.49694542948748 L 652 75.1258951014666 L 653 69.96974036604513 L 654 65.0318710143103 L 655 60.31553333082428 L 656 55.823827959431924 L 657 51.55970786481623 L 658 47.52597639114225 L 659 43.72528541906496 L 660 40.16013362231388 L 661 36.83286482499909 L 662 33.745666460720486 L 663 30.900568134491095 L 664 28.29944028842192 L 665 25.943992972044498 L 666 23.835774718079165 L 667 21.976171524389372 L 668 20.366405942790436 L 669 19.007536275311907 L 670 17.900455878441903 L 671 17.045892575811592 L 672 16.44440817970468 L 673 16.096398121707182 L 674 16.002091192740465 L 675 16.16154939264817 L 676 16.574667889435773 L 677 17.241175088190005 L 678 18.160632809632375 L 679 19.332436578189686 L 680 20.755816019392114 L 681 22.429835366337556 L 682 24.353394074889366 L 683 26.52522754720303 L 684 28.943907963104778 L 685 31.607845218779744 L 686 34.51528797214655 L 687 37.66432479423588 L 688 41.05288542581383 L 689 44.67874213842441 L 690 48.539511198956745 L 691 52.632654436773635 L 692 56.955480912371 L 693 61.50514868647241 L 694 66.27866668839414 L 695 71.27289668245317 L 696 76.48455533112593 L 697 81.91021635359971 L 698 87.54631277829992 L 699 93.38913928791033 L 700 99.43485465534542 L 701 105.67948426907407 L 702 112.11892274613302 L 703 118.74893663111294 L 704 125.565167179343 L 705 132.56313322244364 L 706 139.7382341143641 L 707 147.08575275596732 L 708 154.60085869617456 L 709 162.2786113076303 L 710 170.11396303480007 L 711 178.10176271236537 L 712 186.23675895173494 L 713 194.51360359344474 L 714 202.92685522317808 L 715 211.470982749094 L 716 220.14036903811143 L 717 228.92931460876 L 718 237.8320413781679 L 719 246.84269646072508 L 720 255.95535601592337 L 721 265.16402914284424 L 722 274.4626618187353 L 723 283.8451408790779 L 724 293.3052980365497 L 725 302.83691393621245 L 726 312.4337222442805 L 727 322.0894137677725 L 728 331.7976406023399 L 729 341.5520203055456 L 730 351.3461400928486 L 731 361.1735610535362 L 732 371.02782238383304 L 733 380.9024456344018 L 734 390.7909389694461 L 735 400.68680143461273 L 736 410.58352723088973 L 737 420.4746099916884 L 738 430.35354706029943 L 739 440.2138437649094 L 740 450.0490176883683 L 741 459.8526029298996 L 742 469.6181543559536 L 743 479.3392518374061 L 744 489.00950447031994 L 745 498.622554777492 L 746 508.17208288802567 L 747 517.6518106921789 L 748 527.0555059687582 L 749 536.3769864823439 L 750 545.6101240476535 L 751 554.748848558371 L 752 563.7871519777941 L 753 572.7190922886741 L 754 581.5387973996541 L 755 590.2404690057353 L 756 598.8183864002349 L 757 607.2669102357279 L 758 615.5804862315017 L 759 623.7536488250862 L 760 631.781024765457 L 761 639.6573366455528 L 762 647.3774063717765 L 763 654.9361585682154 L 764 662.3286239133231 L 765 669.5499424068811 L 766 676.5953665650916 L 767 683.4602645416965 L 768 690.1401231730749 L 769 696.6305509453152 L 770 702.9272808813107 L 771 709.0261733459824 L 772 714.9232187677836 L 773 720.6145402746968 L 774 726.0963962429912 L 775 731.3651827570636 L 776 736.4174359787477 L 777 741.249834424531 L 778 745.8592011491853 L 779 750.2425058343747 L 780 754.3968667808642 L 781 758.3195528030261 L 782 762.0079850243916 L 783 765.4597385730724 L 784 768.6725441759351 L 785 771.6442896504798 L 786 774.3730212934452 L 787 776.8569451652236 L 788 779.0944282692445 L 789 781.0839996255481 L 790 782.8243512378474 L 791 784.314338953438 L 792 785.5529832153946 L 793 786.5394697065577 L 794 787.2731498848864 L 795 787.7535414098269 L 796 787.9803284594166 L 797 787.9533619379126 L 798 787.6726595738121 L 799 787.1384059081968 L 800 786.3509521734106 L 801 785.3108160621508 L 802 784.0186813871228 L 803 782.4753976314839 L 804 780.6819793903712 L 805 778.6396057038795 L 806 776.3496192819305 L 807 773.8135256215387 L 808 771.0329920170598 L 809 768.0098464640668 L 810 764.7460764575778 L 811 761.2438276854259 L 812 757.5054026176258 L 813 753.533258992672 L 814 749.3300082017558 L 815 744.8984135719684 L 816 740.2413885496178 L 817 735.3619947848533 L 818 730.2634401188552 L 819 724.9490764749177 L 820 719.4223976548052 L 821 713.6870370418369 L 822 707.7467652122047 L 823 701.605487456098 L 824 695.2672412102638 L 825 688.7361934036896 L 826 682.0166377181561 L 827 675.1129917654573 L 828 668.0297941831479 L 829 660.7717016507236 L 830 653.343485828198 L 831 645.7500302190891 L 832 637.9963269598755 L 833 630.0874735380356 L 834 622.0286694408259 L 835 613.8252127370015 L 836 605.482496593728 L 837 597.0060057309713 L 838 588.4013128156996 L 839 579.6740747982649 L 840 570.8300291933804 L 841 561.8749903081218 L 842 552.8148454194531 L 843 543.6555509037767 L 844 534.4031283210546 L 845 525.063660456078 L 846 515.6432873194851 L 847 506.1482021111573 L 848 496.58464714864743 L 849 486.9589097633173 L 850 477.27731816688083 L 851 467.5462372910725 L 852 457.7720646031742 L 853 447.9612259001534 L 854 438.12017108417535 L 855 428.2553699222689 L 856 418.37330779293256 L 857 408.48048142247626 L 858 398.5833946139041 L 859 388.6885539711435 L 860 378.8024646214339 L 861 368.9316259386854 L 862 359.0825272706205 L 863 349.2616436725072 L 864 339.4754316502877 L 865 329.7303249159028 L 866 320.0327301576012 L 867 310.3890228280147 L 868 300.805542952769 L 869 291.288590962385 L 870 281.84442355021054 L 871 272.4792495591066 L 872 263.19922589959157 L 873 254.0104535021269 L 874 244.91897330620583 L 875 235.93076228888174 L 876 227.05172953534688 L 877 218.28771235414501 L 878 209.64447243957102 L 879 201.1276920837868 L 880 192.7429704411266 L 881 184.49581984707126 L 882 176.39166219429325 L 883 168.43582536816245 L 884 160.63353974405513 L 885 152.989934748768 L 886 145.51003548829885 L 887 138.19875944421045 L 888 131.0609132407492 L 889 124.10118948484484 L 890 117.32416368106755 L 891 110.73429122357174 L 892 104.33590446700293 L 893 98.13320987829496 L 894 92.13028527122793 L 895 86.33107712556722 L 896 80.7393979925439 L 897 75.3589239883841 L 898 70.19319237753399 L 899 65.24559924716908 L 900 60.51939727451838 L 901 56.01769358846849 L 902 51.74344772685629 L 903 47.69946969079098 L 904 43.888418097286035 L 905 40.31279843141448 L 906 36.97496139913778 L 907 33.877101381889815 L 908 31.02125499393361 L 909 28.409299743437316 L 910 26.04295279815136 L 911 23.923769856497472 L 912 22.053144124811922 L 913 20.43230540141485 L 914 19.06231926810915 L 915 17.944086389638528 L 916 17.078341921567585 L 917 16.46565502697058 L 918 16.106428502249628 L 919 16.00089851232468 L 920 16.149134435373526 L 921 16.55103881722016 L 922 17.206347435403984 L 923 18.11462947288652 L 924 19.275287801281706 L 925 20.68755937342388 L 926 22.350515725014702 L 927 24.263063585020348 L 928 26.42394559441601 L 929 28.831741132806883 L 930 31.484867252381207 L 931 34.38157971858152 L 932 37.519974156810065 L 933 40.8979873044147 L 934 44.51339836713146 L 935 48.363830479093224 L 936 52.446752265443195 L 937 56.75947950652716 L 938 61.299176902569855 L 939 66.06285993767489 L 940 71.04739684192396 L 941 76.24951065028449 L 942 81.66578135697159 L 943 87.29264816385012 L 944 93.12641182139606 L 945 99.16323706068016 L 946 105.39915511477432 L 947 111.83006632792245 L 948 118.45174285076178 L 949 125.25983141982158 L 950 132.24985621947263 L 951 139.4172218244454 L 952 146.75721622098283 L 953 154.26501390464196 L 954 161.93567905270643 L 955 169.7641687691256 L 956 177.74533639984773 L 957 185.87393491636047 L 958 194.14462036523128 L 959 202.5519553813582 L 960 211.09041276263673 L 961 219.7543791036875 L 962 228.53815848625567 L 963 237.43597622385676 L 964 246.4419826582067 L 965 255.55025700494036 L 966 264.75481124609007 L 967 274.0495940667653 L 968 283.4284948334458 L 969 292.88534761127164 L 970 302.41393521769044 L 971 312.0079933097957 L 972 321.66121450267 L 973 331.3672525160249 L 974 341.11972634641154 L 975 350.9122244622596 L 976 360.73830901898583 L 977 370.59152009140155 L 978 380.4653799206367 L 979 390.3533971727878 L 980 400.24907120649135 L 981 410.14589634661485 L 982 420.03736616125855 L 983 429.9169777392537 L 984 439.7782359653469 L 985 449.61465779025843 L 986 459.41977649280904 L 987 469.1871459313114 L 988 478.91034478143246 L 989 488.5829807577402 L 990 498.1986948161593 L 991 507.75116533457316 L 992 517.234112268824 L 993 526.6413012813777 L 994 535.9665478399413 L 995 545.2037212833369 L 996 554.3467488519542 L 997 563.389619680149 L 998 572.3263887479388 L 999 581.1511807894155 L 1000 589.8581941552991 L 1001 598.4417046270937 L 1002 606.8960691803392 L 1003 615.2157296944822 L 1004 623.395216606931 L 1005 631.4291525088884 L 1006 639.3122556806015 L 1007 647.0393435637026 L 1008 654.6053361683579 L 1009 662.0052594129869 L 1010 669.234248394353 L 1011 676.2875505858788 L 1012 683.1605289620809 L 1013 689.8486650470724 L 1014 696.3475618851267 L 1015 702.6529469313516 L 1016 708.7606748605724 L 1017 714.6667302925764 L 1018 720.3672304319298 L 1019 725.8584276206282 L 1020 731.1367118019061 L 1021 736.1986128935818 L 1022 741.0408030693807 L 1023 745.6600989467349 L 1024 750.0534636796237 L 1025 754.2180089550734 L 1026 758.1509968920117 L 1027 761.8498418412216 L 1028 765.312112085215 L 1029 768.5355314369074 L 1030 771.5179807360428 L 1031 774.2574992423854 L 1032 776.7522859247614 L 1033 779.0007006451038 L 1034 781.0012652367229 L 1035 782.7526644760901 L 1036 784.253746947502 L 1037 785.503525800051 L 1038 786.5011793964056 L 1039 787.2460518529781 L 1040 787.7376534711178 L 1041 787.9756610590534 L 1042 787.9599181443667 L 1043 787.6904350768617 L 1044 787.167389021761 L 1045 786.3911238432319 L 1046 785.3621498783218 L 1047 784.0811436014491 L 1048 782.5489471796709 L 1049 780.7665679190206 L 1050 778.7351776022787 L 1051 776.4561117186115 L 1052 773.9308685855865 L 1053 771.1611083641382 L 1054 768.1486519671357 L 1055 764.8954798622664 L 1056 761.4037307700248 L 1057 757.6757002576621 L 1058 753.7138392300196 L 1059 749.5207523182396 L 1060 745.0991961674135 L 1061 740.4520776242907 L 1062 735.5824518262411 L 1063 730.4935201927285 L 1064 725.1886283206135 L 1065 719.6712637846698 L 1066 713.9450538447624 L 1067 708.0137630611912 L 1068 701.8812908197708 L 1069 695.5516687682723 L 1070 689.0290581659123 L 1071 682.3177471476322 L 1072 675.4221479049666 L 1073 668.3467937853507 L 1074 661.0963363117849 L 1075 653.6755421247943 L 1076 646.0892898487193 L 1077 638.3425668843789 L 1078 630.4404661302228 L 1079 622.3881826341271 L 1080 614.1910101780331 L 1081 605.8543377976774 L 1082 597.3836462396979 L 1083 588.7845043584481 L 1084 580.062565454886 L 1085 571.2235635599467 L 1086 562.2733096648396 L 1087 553.2176879007512 L 1088 544.0626516704633 L 1089 534.8142197344298 L 1090 525.4784722538861 L 1091 516.0615467935925 L 1092 506.56963428683747 L 1093 497.0089749653571 L 1094 487.3858542568428 L 1095 477.7065986527366 L 1096 467.97757154903064 L 1097 458.2051690628033 L 1098 448.3958158272449 L 1099 438.55596076793574 L 1100 428.69207286315316 L 1101 418.8106368909964 L 1102 408.91814916612344 L 1103 399.02111326890383 L 1104 389.1260357697946 L 1105 379.2394219517506 L 1106 369.3677715334813 L 1107 359.5175743963654 L 1108 349.695306317833 L 1109 339.9074247140202 L 1110 330.1603643944943 L 1111 320.46053333184204 L 1112 310.8143084488989 L 1113 301.2280314263988 L 1114 291.708004533779 L 1115 282.26048648590864 L 1116 272.8916883284443 L 1117 263.6077693545261 L 1118 254.4148330554973 L 1119 245.31892310830892 L 1120 236.32601940224882 L 1121 227.4420341076056 L 1122 218.67280778885325 L 1123 210.02410556491114 L 1124 201.50161331900404 L 1125 193.11093396061338 L 1126 184.85758374197832 L 1127 176.74698863156672 L 1128 168.78448074690175 L 1129 160.97529484908807 L 1130 153.324564901343 L 1131 145.83732069379454 L 1132 138.51848453676592 L 1133 131.3728680247197 L 1134 124.40516887298986 L 1135 117.61996782938064 L 1136 111.0217256626629 L 1137 104.61478022994834 L 1138 98.40334362486828 L 1139 92.39149940843345 L 1140 86.58319992439363 L 1141 80.98226370086394 L 1142 75.59237293992402 L 1143 70.41707109684234 L 1144 65.4597605505158 L 1145 60.723700366656885 L 1146 56.212004155198315 L 1147 51.927638023324675 L 1148 47.873418625475836 L 1149 44.05201131160453 L 1150 40.46592837490539 L 1151 37.11752740016749 L 1152 34.009009713838225 L 1153 31.14241893681043 L 1154 28.519639640894923 L 1155 26.142396109853053 L 1156 24.012251205807218 L 1157 22.130605341774583 L 1158 20.49869556099884 L 1159 19.117594723685784 L 1160 17.98821080167653 L 1161 17.111286281523405 L 1162 16.487397676359762 L 1163 16.116955146885232 L 1164 16.000202231715036 L 1165 16.137215687271635 L 1166 16.527905437323057 L 1167 17.172014632201183 L 1168 18.06911981766143 L 1169 19.218631213272943 L 1170 20.619793100155334 L 1171 22.271684317808365 L 1172 24.17321886970666 L 1173 26.32314663726254 L 1174 28.720054201686594 L 1175 31.362365773205966 L 1176 34.24834422703026 L 1177 37.37609224538244 L 1178 40.7435535648454 L 1179 44.34851432820335 L 1180 48.18860453988924 L 1181 52.261299624082426 L 1182 56.563922084430374 L 1183 61.09364326430506 L 1184 65.84748520643575 L 1185 70.82232261069646 L 1186 76.01488488875947 L 1187 81.42175831426619 L 1188 87.03938826709992 L 1189 92.86408157028637 L 1190 98.89200891798555 L 1191 105.11920739297437 L 1192 111.54158307197724 L 1193 118.15491371711494 L 1194 124.9548515517152 L 1195 131.93692611865487 L 1196 139.09654721935556 L 1197 146.42900793150014 L 1198 153.92948770348687 L 1199 161.59305552358606 L 1200 169.41467316171634 L 1201 177.38919848170895 L 1202 185.51138882188258 L 1203 193.77590444170661 L 1204 202.17731203228612 L 1205 210.7100882883614 L 1206 219.36862353947336 L 1207 228.14722543790793 L 1208 237.0401227009942 L 1209 246.0414689052969 L 1210 255.14534633020804 L 1211 264.3457698484114 L 1212 273.63669086066204 L 1213 283.01200127229345 L 1214 292.46553750883913 L 1215 301.9910845681278 L 1216 311.5823801061882 L 1217 321.23311855427835 L 1218 330.936955264331 L 1219 340.6875106800919 L 1220 350.47837453120667 L 1221 360.30311004750035 L 1222 370.1552581906789 L 1223 380.0283419006697 L 1224 389.91587035381053 L 1225 399.8113432300869 L 1226 409.7082549866126 L 1227 419.60009913454394 L 1228 429.4803725166158 L 1229 439.3425795824886 L 1230 449.180236659088 L 1231 458.9868762131492 L 1232 468.7560511031373 L 1233 478.48133881776823 L 1234 488.15634569833566 L 1235 497.7747111420698 L 1236 507.3301117837641 L 1237 516.8162656529207 L 1238 526.2269363036829 L 1239 535.5559369148374 L 1240 544.7971343571928 L 1241 553.9444532256589 L 1242 562.9918798333774 L 1243 571.9334661652772 L 1244 580.7633337884545 L 1245 589.4756777168092 L 1246 598.0647702273941 L 1247 606.5249646259706 L 1248 614.8506989592926 L 1249 623.0364996716814 L 1250 631.0769852034796 L 1251 638.9668695290402 L 1252 646.7009656318832 L 1253 654.2741889147921 L 1254 661.6815605425451 L 1255 668.9182107151476 L 1256 675.9793818693504 L 1257 682.8604318064122 L 1258 689.5568367439867 L 1259 696.0641942901909 L 1260 702.3782263378384 L 1261 708.4947818769924 L 1262 714.4098397239352 L 1263 720.1195111648128 L 1264 725.6200425121647 L 1265 730.9078175727072 L 1266 735.979360024704 L 1267 740.8313357034002 L 1268 745.46055479298 L 1269 749.8639739236451 L 1270 754.0386981723957 L 1271 757.981982966238 L 1272 761.6912358865295 L 1273 765.1640183733118 L 1274 768.3980473284747 L 1275 771.3911966167332 L 1276 774.1414984633966 L 1277 776.6471447480427 L 1278 778.9064881932163 L 1279 780.9180434473986 L 1280 782.6804880615116 L 1281 784.1926633583339 L 1282 785.4535751942433 L 1283 786.4623946127945 L 1284 787.2184583896949 L 1285 787.7212694688282 L 1286 787.970497289029 L 1287 787.9659780014051 L 1288 787.7077145770543 L 1289 787.195876805112 L 1290 786.4308011811268 L 1291 785.4129906858403 L 1292 784.1431144545134 L 1293 782.6220073370202 L 1294 780.8506693489949 L 1295 778.8302650143969 L 1296 776.5621225999195 L 1297 774.0477332417565 L 1298 771.2887499652857 L 1299 768.2869865983317 L 1300 765.0444165787027 L 1301 761.5631716568065 L 1302 757.8455404941758 L 1303 753.8939671588489 L 1304 749.7110495185684 L 1305 745.2995375328824 L 1306 740.6623314452406 L 1307 735.8024798763081 L 1308 730.7231778197119 L 1309 725.4277645415791 L 1310 719.9197213852051 L 1311 714.2026694823389 L 1312 708.280367372544 L 1313 702.1567085322488 L 1314 695.8357188150605 L 1315 689.3215538050765 L 1316 682.6184960848814 L 1317 675.7309524200789 L 1318 668.6634508621541 L 1319 661.4206377716295 L 1320 654.0072747634096 L 1321 646.4282355763876 L 1322 638.6885028693044 L 1323 630.7931649450366 L 1324 622.7474124053938 L 1325 614.5565347387005 L 1326 606.2259168423292 L 1327 597.761035482544 L 1328 589.1674556939242 L 1329 580.450827120758 L 1330 571.616880302835 L 1331 562.6714229080198 L 1332 553.620335914159 L 1333 544.4695697427526 L 1334 535.2251403470112 L 1335 525.8931252567905 L 1336 516.4796595830845 L 1337 506.99093198462253 L 1338 497.4331805993037 L 1339 487.8126889430607 L 1340 478.13578177893345 L 1341 468.40882095898235 L 1342 458.6382012418625 L 1343 448.8303460887196 L 1344 438.99170344026066 L 1345 429.1287414776872 L 1346 419.24794437036513 L 1347 409.3558080129405 L 1348 399.4588357547902 L 1349 389.56353412452773 L 1350 379.6764085524633 L 1351 369.8039590937411 L 1352 359.95267615505566 L 1353 350.1290362276659 L 1354 340.33949762960265 L 1355 330.59049625977923 L 1356 320.8884413668851 L 1357 311.2397113357558 L 1358 301.6506494940781 L 1359 292.1275599420982 L 1360 282.67670340816284 L 1361 273.3042931327316 L 1362 264.01649078365074 L 1363 254.81940240529067 L 1364 245.71907440429334 L 1365 236.7214895744857 L 1366 227.8325631636522 L 1367 219.05813898468833 L 1368 210.403985573718 L 1369 201.87579239772367 L 1370 193.47916611412296 L 1371 185.21962688482378 L 1372 177.10260474710708 L 1373 169.1334360437965 L 1374 161.31735991498886 L 1375 153.65951485372395 L 1376 146.16493532778748 L 1377 138.83854846993705 L 1378 131.6851708386596 L 1379 124.70950525165591 L 1380 117.9161376940695 L 1381 111.30953430355504 L 1382 104.89403843410798 L 1383 98.67386780064413 L 1384 92.65311170614945 L 1385 86.83572835327925 L 1386 81.22554224211837 L 1387 75.82624165586788 L 1388 70.6413762360587 L 1389 65.67435464893629 L 1390 60.92844234450274 L 1391 56.40675940973546 L 1392 52.11227851734981 L 1393 48.0478229714962 L 1394 44.21606485163687 L 1395 40.61952325585946 L 1396 37.260562644747665 L 1397 34.14139128693097 L 1398 31.264059807303795 L 1399 28.630459838897366 L 1400 26.242322779264953 L 1401 24.101218652221064 L 1402 22.20855507566182 L 1403 20.56557633616461 L 1404 19.173362570957295 L 1405 18.032829057811455 L 1406 17.14472561331246 L 1407 16.50963609991078 L 1408 16.12797804207662 L 1409 16.00000235180687 L 1410 16.12579316367021 L 1411 16.50526777949443 L 1412 17.138176722734045 L 1413 18.02410390248332 L 1414 19.162466887024607 L 1415 20.552517286735338 L 1416 22.193341246096907 L 1417 24.08386004449028 L 1418 26.222830805371416 L 1419 28.60884731337495 L 1420 31.24034093879243 L 1421 34.115581668835716 L 1422 37.232679244987025 L 1423 40.58958440571024 L 1424 44.18409023368292 L 1425 48.01383360668825 L 1426 52.07629675118585 L 1427 56.368808897570545 L 1428 60.88854803599696 L 1429 65.6325427716522 L 1430 70.5976742782189 L 1431 75.7806783482834 L 1432 81.1781475393002 L 1433 86.78653341374564 L 1434 92.60214887194138 L 1435 98.6211705760627 L 1436 104.839641463688 L 1437 111.25347334928881 L 1438 117.85844961189565 L 1439 124.65022796722974 L 1440 131.62434332241946 L 1441 138.77621071148434 L 1442 146.10112830959628 L 1443 153.59428052419818 L 1444 161.25074116088646 L 1445 169.0654766620259 L 1446 177.03334941594906 L 1447 185.14912113454142 L 1448 193.40745629704648 L 1449 201.80292565775932 L 1450 210.33000981537248 L 1451 218.98310284155687 L 1452 227.75651596646418 L 1453 236.64448131865424 L 1454 245.641155717064 L 1455 254.74062451244794 L 1456 263.93690547584345 L 1457 273.2239527314242 L 1458 282.5956607312382 L 1459 292.04586826913334 L 1460 301.56836253131723 L 1461 311.15688318080214 L 1462 320.80512647313566 L 1463 330.50674940062606 L 1464 340.25537386242297 L 1465 350.0445908576263 L 1466 359.86796469875276 L 1467 369.7190372427036 L 1468 379.59133213653894 L 1469 389.4783590751793 L 1470 399.37361806832456 L 1471 409.2706037136953 L 1472 419.162809473877 L 1473 429.0437319538656 L 1474 438.9068751765916 L 1475 448.74575485352403 L 1476 458.55390264763264 L 1477 468.3248704258207 L 1478 478.0522344981178 L 1479 487.72959984076044 L 1480 497.35060430046946 L 1481 506.9089227770747 L 1482 516.3982713818227 L 1483 525.8124115685513 L 1484 535.1451542350808 L 1485 544.3903637920996 L 1486 553.5419621968435 L 1487 562.5939329489802 L 1488 571.5403250459938 L 1489 580.3752568955497 L 1490 589.092920182188 L 1491 597.6875836858811 L 1492 606.1535970498687 L 1493 614.4853944953693 L 1494 622.6774984806499 L 1495 630.7245233021242 L 1496 638.6211786350366 L 1497 646.3622730114778 L 1498 653.9427172333748 L 1499 661.3575277182796 L 1500 668.6018297756902 L 1501 675.6708608118163 L 1502 682.5599734606161 L 1503 689.2646386391136 L 1504 695.7804485249198 L 1505 702.1031194540659 L 1506 708.2284947371816 L 1507 714.1525473922252 L 1508 719.8713827919141 L 1509 725.3812412241673 L 1510 730.6785003638258 L 1511 735.759677654077 L 1512 740.6214325959655 L 1513 745.2605689445375 L 1514 749.6740368101237 L 1515 753.8589346634276 L 1516 757.8125112430573 L 1517 761.5321673642853 L 1518 765.0154576278121 L 1519 768.2600920274441 L 1520 771.2639374555959 L 1521 774.0250191056579 L 1522 776.5415217702803 L 1523 778.8117910347405 L 1524 780.8343343646003 L 1525 782.6078220869326 L 1526 784.1310882644883 L 1527 785.4031314622093 L 1528 786.4231154056021 L 1529 787.1903695305231 L 1530 787.704389424028 L 1531 787.9648371559839 L 1532 787.9715415012347 L 1533 787.7244980521682 L 1534 787.2238692216141 L 1535 786.4699841360703 L 1536 785.4633384193244 L 1537 784.2045938666208 L 1538 782.6945780095755 L 1539 780.9342835721393" stroke-linecap="round" stroke-linejoin="round" stroke-miterlimit="10" stroke-width="13"/></g></svg>